<?xml version="1.0" encoding="UTF-8" standalone="no"?>
<svg width="503px" height="33px" viewBox="0 0 503 33" version="1.1" xmlns="http://www.w3.org/2000/svg" xmlns:xlink="http://www.w3.org/1999/xlink" xmlns:sketch="http://www.bohemiancoding.com/sketch/ns">
    <!-- Generator: Sketch 3.3.1 (12002) - http://www.bohemiancoding.com/sketch -->
    <title>college_logo</title>
    <desc>Created with Sketch.</desc>
    <defs></defs>
    <g id="Page-1" stroke="none" stroke-width="1" fill="none" fill-rule="evenodd" sketch:type="MSPage">
        <g id="college_logo" sketch:type="MSLayerGroup" fill="#FFFFFF">
            <g id="Imported-Layers-Copy" transform="translate(0.000000, 1.000000)" sketch:type="MSShapeGroup">
                <path d="M167.780414,28.7979 L170.829241,20.7723 L171.354483,21.2288 C173.221517,22.7479 175.758345,24.0404 178.149517,24.091 C180.290207,24.1394 181.334069,23.5729 181.049379,21.7678 C180.839724,20.4203 179.311448,20.1827 178.358069,19.9957 L176.265931,19.5799 C172.197517,18.8209 168.772414,16.3162 168.772414,11.5752 C168.772414,4.401 174.971586,0.3816 181.209379,0.3816 C184.484414,0.3816 187.492414,1.2132 190.305103,3.037 L187.662345,10.1507 C186.212414,9.1079 184.019862,7.6427 181.243586,7.5437 C180.331034,7.5085 178.235586,7.987 178.907586,10.1023 C179.19669,11.0032 180.492138,11.3816 181.288828,11.5752 L183.652414,12.1428 C188.06069,13.168 191.252966,15.6694 191.252966,20.791 C191.252966,28.0004 185.014069,31.5677 178.820414,31.5677 C175.201103,31.5677 171.015724,30.5414 167.780414,28.7979" id="Fill-1"></path>
                <path d="M154.918621,0.8733 L165.537103,0.8733 L165.537103,31.1145 L154.918621,31.1145 L154.918621,0.8733 Z" id="Fill-2"></path>
                <path d="M142.948414,0.8733 L153.822897,0.8733 L142.714483,31.1145 L133.89131,31.1145 L122.81931,0.8733 L133.656276,0.8733 L138.304,19.1223 L142.948414,0.8733" id="Fill-3"></path>
                <path d="M97.0615172,31.1145 L108.093793,31.1145 L108.933517,27.3173 L116.80331,27.3173 L117.849379,31.1145 L128.888276,31.1145 L118.555586,0.8733 L106.982621,0.8733 L97.0615172,31.1145 L97.0615172,31.1145 Z M112.887172,9.6018 L112.887172,9.6018 C113.080276,10.8899 114.980414,20.1442 114.980414,20.1442 L110.807172,20.1442 L112.887172,9.6018 L112.887172,9.6018 Z" id="Fill-4"></path>
                <path d="M80.4722759,22.4322 L81.1851034,22.4322 C84.6841379,22.4322 87.2794483,20.3378 87.2794483,16.391 C87.2794483,12.1428 84.9798621,9.7723 81.1365517,9.7723 L80.4722759,9.7723 L80.4722759,22.4322 L80.4722759,22.4322 Z M69.7842759,0.8733 L80.6598621,0.8733 C90.3657931,0.8733 97.7798621,5.3151 97.7798621,16.4317 C97.7798621,25.3857 91.7373793,31.1145 83.2485517,31.1145 L69.7842759,31.098 L69.7842759,0.8733 L69.7842759,0.8733 Z" id="Fill-5"></path>
                <path d="M63.433931,1.8215 L64.0011034,6.7847 C64.1335172,7.9628 64.8088276,10.7898 63.9746207,10.4103 C63.4537931,10.1771 63.0234483,8.8956 62.5986207,7.7582 C62.3812414,7.1785 61.3484138,4.4472 61.078069,4.2481 C59.7693793,3.2735 56.5097931,2.1746 54.3051034,2.1636 C47.616,2.1394 43.1933793,7.0564 43.1933793,15.786 C43.1933793,22.045 46.1991724,29.5536 53.8471724,29.5536 C56.585931,29.5536 61.8350345,28.6945 63.2617931,24.8071 C63.9084138,23.0482 64.4998621,21.484 64.9268966,21.9603 C65.2457931,22.3057 64.832,23.7159 64.6411034,24.4738 C63.7395862,28.0763 63.6921379,29.1697 63.4063448,29.3083 C59.9514483,31.0397 55.52,31.6084 51.6413793,31.6084 C39.3092414,31.6084 35.0521379,24.4353 35.0521379,17.2644 C35.0521379,4.8212 42.7188966,-0.4214 54.6030345,0.1165 C57.609931,0.2276 60.6190345,0.7622 63.433931,1.8215" id="Fill-6"></path>
                <path d="M27.0223448,2.3726 L25.0471724,1.6862 C24.3873103,1.0911 25.193931,0.925 25.193931,0.925 C25.193931,0.925 28.0474483,1.4541 35.1569655,0.8535 C35.1569655,0.8535 35.7737931,0.9745 35.3478621,1.4739 L33.0151724,2.4694 C31.4957241,3.1316 31.4957241,2.7521 31.4957241,4.412 L31.4824828,19.8252 C31.4824828,31.8779 19.1845517,31.6084 16.790069,31.6084 C15.6468966,31.6084 4.36634483,31.6084 4.36634483,21.9317 L4.36634483,5.6176 C4.36634483,2.773 4.672,2.8467 3.72413793,2.5145 L0.871724138,1.4475 C0.871724138,1.4475 0.387310345,0.7644 1.24910345,0.8084 C3.5817931,0.925 6.95724138,1.4233 14.8965517,0.8535 C14.8965517,0.8535 15.5873103,1.0196 15.1326897,1.5179 L12.7591724,2.1834 C10.9517241,2.9919 11.1911724,2.3726 11.1426207,4.2228 L11.2,20.3103 C11.2,24.2538 13.2358621,29.1378 19.6402759,29.1378 C28.3564138,29.1378 28.438069,21.6215 28.438069,19.9506 L28.4546207,4.0149 C28.5473103,2.5145 28.3564138,2.9413 27.0223448,2.3726" id="Fill-7"></path>
            </g>
            <path d="M216.648,1.224 C215.72,0.84 214.792,0.616 213.784,0.616 C212.088,0.616 210.376,1.352 209.192,2.568 C208.04,3.752 207.416,5.336 207.416,6.984 C207.416,8.776 208.024,10.344 209.352,11.544 C210.6,12.68 212.2,13.32 213.88,13.32 C214.856,13.32 215.608,13.08 216.648,12.76 L216.648,9 C215.992,9.784 214.968,10.28 213.944,10.28 C211.992,10.28 210.68,8.904 210.68,7 C210.68,5.128 211.976,3.656 213.896,3.656 C214.968,3.656 216.008,4.12 216.648,4.984 L216.648,1.224 Z M225.548,0.536 C222.076,0.536 218.876,3.096 218.876,6.744 C218.876,10.648 221.676,13.4 225.548,13.4 C229.42,13.4 232.22,10.648 232.22,6.744 C232.22,3.096 229.02,0.536 225.548,0.536 L225.548,0.536 Z M225.548,3.576 C227.42,3.576 228.956,5.096 228.956,6.76 C228.956,8.84 227.42,10.36 225.548,10.36 C223.676,10.36 222.14,8.84 222.14,6.76 C222.14,5.096 223.676,3.576 225.548,3.576 L225.548,3.576 Z M237.712,0.936 L234.576,0.936 L234.576,13 L241.472,13 L241.472,10.344 L237.712,10.344 L237.712,0.936 Z M246.532,0.936 L243.396,0.936 L243.396,13 L250.292,13 L250.292,10.344 L246.532,10.344 L246.532,0.936 Z M259.08,3.592 L259.08,0.936 L252.216,0.936 L252.216,13 L259.08,13 L259.08,10.344 L255.352,10.344 L255.352,8.264 L258.888,8.264 L258.888,5.608 L255.352,5.608 L255.352,3.592 L259.08,3.592 Z M267.724,6.264 L267.724,8.728 L270.284,8.728 C270.156,10.12 269.116,10.824 267.756,10.824 C265.692,10.824 264.572,8.92 264.572,7.048 C264.572,5.208 265.644,3.24 267.708,3.24 C268.972,3.24 269.884,4.008 270.316,5.16 L273.292,3.912 C272.252,1.656 270.332,0.536 267.852,0.536 C263.964,0.536 261.308,3.112 261.308,7.032 C261.308,10.824 263.948,13.4 267.74,13.4 C269.756,13.4 271.532,12.68 272.716,11.032 C273.788,9.528 273.916,8.024 273.948,6.264 L267.724,6.264 Z M283.152,3.592 L283.152,0.936 L276.288,0.936 L276.288,13 L283.152,13 L283.152,10.344 L279.424,10.344 L279.424,8.264 L282.96,8.264 L282.96,5.608 L279.424,5.608 L279.424,3.592 L283.152,3.592 Z M298.44,0.536 C294.968,0.536 291.768,3.096 291.768,6.744 C291.768,10.648 294.568,13.4 298.44,13.4 C302.312,13.4 305.112,10.648 305.112,6.744 C305.112,3.096 301.912,0.536 298.44,0.536 L298.44,0.536 Z M298.44,3.576 C300.312,3.576 301.848,5.096 301.848,6.76 C301.848,8.84 300.312,10.36 298.44,10.36 C296.568,10.36 295.032,8.84 295.032,6.76 C295.032,5.096 296.568,3.576 298.44,3.576 L298.44,3.576 Z M314.396,3.592 L314.396,0.936 L307.468,0.936 L307.468,13 L310.604,13 L310.604,8.264 L314.044,8.264 L314.044,5.608 L310.604,5.608 L310.604,3.592 L314.396,3.592 Z M330.82,10.904 L331.604,13 L334.948,13 L330.404,0.936 L326.98,0.936 L322.34,13 L325.668,13 L326.5,10.904 L330.82,10.904 Z M329.972,8.504 L327.364,8.504 L328.66,4.664 L328.692,4.664 L329.972,8.504 Z M342.632,6.264 L342.632,8.728 L345.192,8.728 C345.064,10.12 344.024,10.824 342.664,10.824 C340.6,10.824 339.48,8.92 339.48,7.048 C339.48,5.208 340.552,3.24 342.616,3.24 C343.88,3.24 344.792,4.008 345.224,5.16 L348.2,3.912 C347.16,1.656 345.24,0.536 342.76,0.536 C338.872,0.536 336.216,3.112 336.216,7.032 C336.216,10.824 338.856,13.4 342.648,13.4 C344.664,13.4 346.44,12.68 347.624,11.032 C348.696,9.528 348.824,8.024 348.856,6.264 L342.632,6.264 Z M357.436,8.056 C359.148,7.752 360.076,6.312 360.076,4.648 C360.076,2.072 358.268,0.936 355.884,0.936 L351.196,0.936 L351.196,13 L354.332,13 L354.332,8.36 L354.364,8.36 L357.324,13 L361.228,13 L357.436,8.056 Z M354.332,3.336 L354.636,3.336 C355.66,3.336 356.812,3.528 356.812,4.84 C356.812,6.152 355.66,6.344 354.636,6.344 L354.332,6.344 L354.332,3.336 Z M366.112,0.936 L362.976,0.936 L362.976,13 L366.112,13 L366.112,0.936 Z M377.684,1.224 C376.756,0.84 375.828,0.616 374.82,0.616 C373.124,0.616 371.412,1.352 370.228,2.568 C369.076,3.752 368.452,5.336 368.452,6.984 C368.452,8.776 369.06,10.344 370.388,11.544 C371.636,12.68 373.236,13.32 374.916,13.32 C375.892,13.32 376.644,13.08 377.684,12.76 L377.684,9 C377.028,9.784 376.004,10.28 374.98,10.28 C373.028,10.28 371.716,8.904 371.716,7 C371.716,5.128 373.012,3.656 374.932,3.656 C376.004,3.656 377.044,4.12 377.684,4.984 L377.684,1.224 Z M387.848,0.936 L387.848,7.288 C387.848,8.856 387.736,10.568 385.72,10.568 C383.704,10.568 383.592,8.856 383.592,7.288 L383.592,0.936 L380.456,0.936 L380.456,7.72 C380.456,9.272 380.52,10.808 381.72,11.976 C382.728,12.968 384.312,13.32 385.72,13.32 C387.128,13.32 388.712,12.968 389.72,11.976 C390.92,10.808 390.984,9.272 390.984,7.72 L390.984,0.936 L387.848,0.936 Z M397.004,0.936 L393.868,0.936 L393.868,13 L400.764,13 L400.764,10.344 L397.004,10.344 L397.004,0.936 Z M406.608,3.592 L409.2,3.592 L409.2,0.936 L400.88,0.936 L400.88,3.592 L403.472,3.592 L403.472,13 L406.608,13 L406.608,3.592 Z M418.564,0.936 L418.564,7.288 C418.564,8.856 418.452,10.568 416.436,10.568 C414.42,10.568 414.308,8.856 414.308,7.288 L414.308,0.936 L411.172,0.936 L411.172,7.72 C411.172,9.272 411.236,10.808 412.436,11.976 C413.444,12.968 415.028,13.32 416.436,13.32 C417.844,13.32 419.428,12.968 420.436,11.976 C421.636,10.808 421.7,9.272 421.7,7.72 L421.7,0.936 L418.564,0.936 Z M430.824,8.056 C432.536,7.752 433.464,6.312 433.464,4.648 C433.464,2.072 431.656,0.936 429.272,0.936 L424.584,0.936 L424.584,13 L427.72,13 L427.72,8.36 L427.752,8.36 L430.712,13 L434.616,13 L430.824,8.056 Z M427.72,3.336 L428.024,3.336 C429.048,3.336 430.2,3.528 430.2,4.84 C430.2,6.152 429.048,6.344 428.024,6.344 L427.72,6.344 L427.72,3.336 Z M443.755999,10.904 L444.539999,13 L447.883999,13 L443.339999,0.936 L439.915999,0.936 L435.275999,13 L438.603999,13 L439.435999,10.904 L443.755999,10.904 Z M442.907999,8.504 L440.299999,8.504 L441.595999,4.664 L441.627999,4.664 L442.907999,8.504 Z M452.895999,0.936 L449.759999,0.936 L449.759999,13 L456.655999,13 L456.655999,10.344 L452.895999,10.344 L452.895999,0.936 Z M215.416,29.904 L216.2,32 L219.544,32 L215,19.936 L211.576,19.936 L206.936,32 L210.264,32 L211.096,29.904 L215.416,29.904 Z M214.568,27.504 L211.96,27.504 L213.256,23.664 L213.288,23.664 L214.568,27.504 Z M221.42,32 L224.556,32 L224.556,24.608 L224.588,24.608 L230.332,32 L233.468,32 L233.468,19.936 L230.332,19.936 L230.332,27.312 L230.3,27.312 L224.556,19.936 L221.42,19.936 L221.42,32 Z M236.416,32 L240.864,32 C244.208,32 246.992,29.36 246.992,25.968 C246.992,22.576 244.224,19.936 240.864,19.936 L236.416,19.936 L236.416,32 Z M239.552,22.592 L240.288,22.592 C242.304,22.592 243.728,23.808 243.728,25.968 C243.728,28.32 242.128,29.344 240.256,29.344 L239.552,29.344 L239.552,22.592 Z M262.6,22.592 L262.6,19.936 L255.736,19.936 L255.736,32 L262.6,32 L262.6,29.344 L258.872,29.344 L258.872,27.264 L262.408,27.264 L262.408,24.608 L258.872,24.608 L258.872,22.592 L262.6,22.592 Z M265.436,32 L268.572,32 L268.572,24.608 L268.604,24.608 L274.348,32 L277.484,32 L277.484,19.936 L274.348,19.936 L274.348,27.312 L274.316,27.312 L268.572,19.936 L265.436,19.936 L265.436,32 Z M282.576,19.936 L279.168,19.936 L284.24,32 L286.672,32 L291.824,19.936 L288.416,19.936 L285.488,27.264 L282.576,19.936 Z M296.644,19.936 L293.508,19.936 L293.508,32 L296.644,32 L296.644,19.936 Z M305.832,27.056 C307.544,26.752 308.472,25.312 308.472,23.648 C308.472,21.072 306.664,19.936 304.28,19.936 L299.592,19.936 L299.592,32 L302.728,32 L302.728,27.36 L302.76,27.36 L305.72,32 L309.624,32 L305.832,27.056 Z M302.728,22.336 L303.032,22.336 C304.056,22.336 305.208,22.528 305.208,23.84 C305.208,25.152 304.056,25.344 303.032,25.344 L302.728,25.344 L302.728,22.336 Z M317.436,19.536 C313.964,19.536 310.764,22.096 310.764,25.744 C310.764,29.648 313.564,32.4 317.436,32.4 C321.308,32.4 324.108,29.648 324.108,25.744 C324.108,22.096 320.908,19.536 317.436,19.536 L317.436,19.536 Z M317.436,22.576 C319.308,22.576 320.844,24.096 320.844,25.76 C320.844,27.84 319.308,29.36 317.436,29.36 C315.564,29.36 314.028,27.84 314.028,25.76 C314.028,24.096 315.564,22.576 317.436,22.576 L317.436,22.576 Z M326.464,32 L329.6,32 L329.6,24.608 L329.632,24.608 L335.376,32 L338.512,32 L338.512,19.936 L335.376,19.936 L335.376,27.312 L335.344,27.312 L329.6,19.936 L326.464,19.936 L326.464,32 Z M340.74,32 L343.86,32 L344.868,25.056 L344.9,25.056 L347.668,32 L348.916,32 L351.812,25.056 L351.844,25.056 L352.724,32 L355.86,32 L354.036,19.936 L350.916,19.936 L348.324,26.384 L345.876,19.936 L342.788,19.936 L340.74,32 Z M364.952,22.592 L364.952,19.936 L358.088,19.936 L358.088,32 L364.952,32 L364.952,29.344 L361.224,29.344 L361.224,27.264 L364.76,27.264 L364.76,24.608 L361.224,24.608 L361.224,22.592 L364.952,22.592 Z M367.788,32 L370.924,32 L370.924,24.608 L370.956,24.608 L376.7,32 L379.836,32 L379.836,19.936 L376.7,19.936 L376.7,27.312 L376.668,27.312 L370.924,19.936 L367.788,19.936 L367.788,32 Z M387.584,22.592 L390.176,22.592 L390.176,19.936 L381.856,19.936 L381.856,22.592 L384.448,22.592 L384.448,32 L387.584,32 L387.584,22.592 Z M398.644,29.904 L399.428,32 L402.772,32 L398.228,19.936 L394.804,19.936 L390.164,32 L393.492,32 L394.324,29.904 L398.644,29.904 Z M397.796,27.504 L395.188,27.504 L396.484,23.664 L396.516,23.664 L397.796,27.504 Z M407.784,19.936 L404.648,19.936 L404.648,32 L411.544,32 L411.544,29.344 L407.784,29.344 L407.784,19.936 Z M427.728,20.608 C426.656,20 425.168,19.616 423.952,19.616 C421.536,19.616 419.792,21.216 419.792,23.664 C419.792,26 421.088,26.512 423.056,27.072 C423.728,27.264 424.96,27.568 424.96,28.448 C424.96,29.296 424.176,29.664 423.44,29.664 C422.368,29.664 421.44,29.104 420.656,28.416 L419.312,30.944 C420.544,31.808 422.032,32.32 423.552,32.32 C424.768,32.32 426.032,31.984 426.976,31.184 C427.936,30.368 428.224,29.136 428.224,27.936 C428.224,25.984 426.928,25.136 425.248,24.64 L424.448,24.4 C423.904,24.224 423.056,23.952 423.056,23.248 C423.056,22.576 423.824,22.24 424.4,22.24 C425.168,22.24 425.904,22.56 426.48,23.04 L427.728,20.608 Z M439.236,20.224 C438.308,19.84 437.38,19.616 436.372,19.616 C434.676,19.616 432.964,20.352 431.78,21.568 C430.628,22.752 430.004,24.336 430.004,25.984 C430.004,27.776 430.612,29.344 431.94,30.544 C433.188,31.68 434.788,32.32 436.468,32.32 C437.444,32.32 438.196,32.08 439.236,31.76 L439.236,28 C438.58,28.784 437.556,29.28 436.532,29.28 C434.58,29.28 433.268,27.904 433.268,26 C433.268,24.128 434.564,22.656 436.484,22.656 C437.556,22.656 438.596,23.12 439.236,23.984 L439.236,20.224 Z M445.208,19.936 L442.072,19.936 L442.072,32 L445.208,32 L445.208,19.936 Z M455.019999,22.592 L455.019999,19.936 L448.155999,19.936 L448.155999,32 L455.019999,32 L455.019999,29.344 L451.291999,29.344 L451.291999,27.264 L454.827999,27.264 L454.827999,24.608 L451.291999,24.608 L451.291999,22.592 L455.019999,22.592 Z M457.855999,32 L460.991999,32 L460.991999,24.608 L461.023999,24.608 L466.767999,32 L469.903999,32 L469.903999,19.936 L466.767999,19.936 L466.767999,27.312 L466.735999,27.312 L460.991999,19.936 L457.855999,19.936 L457.855999,32 Z M481.475999,20.224 C480.547999,19.84 479.619999,19.616 478.611999,19.616 C476.915999,19.616 475.203999,20.352 474.019999,21.568 C472.867999,22.752 472.243999,24.336 472.243999,25.984 C472.243999,27.776 472.851999,29.344 474.179999,30.544 C475.427999,31.68 477.027999,32.32 478.707999,32.32 C479.683999,32.32 480.435999,32.08 481.475999,31.76 L481.475999,28 C480.819999,28.784 479.795999,29.28 478.771999,29.28 C476.819999,29.28 475.507999,27.904 475.507999,26 C475.507999,24.128 476.803999,22.656 478.723999,22.656 C479.795999,22.656 480.835999,23.12 481.475999,23.984 L481.475999,20.224 Z M491.175999,22.592 L491.175999,19.936 L484.311999,19.936 L484.311999,32 L491.175999,32 L491.175999,29.344 L487.447999,29.344 L487.447999,27.264 L490.983999,27.264 L490.983999,24.608 L487.447999,24.608 L487.447999,22.592 L491.175999,22.592 Z M501.883999,20.608 C500.811999,20 499.323999,19.616 498.107999,19.616 C495.691999,19.616 493.947999,21.216 493.947999,23.664 C493.947999,26 495.243999,26.512 497.211999,27.072 C497.883999,27.264 499.115999,27.568 499.115999,28.448 C499.115999,29.296 498.331999,29.664 497.595999,29.664 C496.523999,29.664 495.595999,29.104 494.811999,28.416 L493.467999,30.944 C494.699999,31.808 496.187999,32.32 497.707999,32.32 C498.923999,32.32 500.187999,31.984 501.131999,31.184 C502.091999,30.368 502.379999,29.136 502.379999,27.936 C502.379999,25.984 501.083999,25.136 499.403999,24.64 L498.603999,24.4 C498.059999,24.224 497.211999,23.952 497.211999,23.248 C497.211999,22.576 497.979999,22.24 498.555999,22.24 C499.323999,22.24 500.059999,22.56 500.635999,23.04 L501.883999,20.608 Z" id="COLLEGE-OF-AGRICULTU-Copy" sketch:type="MSShapeGroup"></path>
        </g>
    </g>
</svg>