<?xml version="1.0" encoding="UTF-8" standalone="no"?>
<svg width="307px" height="33px" viewBox="0 0 307 33" version="1.1" xmlns="http://www.w3.org/2000/svg" xmlns:xlink="http://www.w3.org/1999/xlink" xmlns:sketch="http://www.bohemiancoding.com/sketch/ns">
    <!-- Generator: Sketch 3.3.1 (12002) - http://www.bohemiancoding.com/sketch -->
    <title>department_logo</title>
    <desc>Created with Sketch.</desc>
    <defs></defs>
    <g id="Page-1" stroke="none" stroke-width="1" fill="none" fill-rule="evenodd" sketch:type="MSPage">
        <g id="department_logo" sketch:type="MSLayerGroup" fill="#FFFFFF">
            <path d="M6.92000033,8.056 C8.63200033,7.752 9.56000033,6.312 9.56000033,4.648 C9.56000033,2.072 7.75200033,0.936 5.36800033,0.936 L0.680000334,0.936 L0.680000334,13 L3.81600033,13 L3.81600033,8.36 L3.84800033,8.36 L6.80800033,13 L10.7120003,13 L6.92000033,8.056 Z M3.81600033,3.336 L4.12000033,3.336 C5.14400033,3.336 6.29600033,3.528 6.29600033,4.84 C6.29600033,6.152 5.14400033,6.344 4.12000033,6.344 L3.81600033,6.344 L3.81600033,3.336 Z M18.5240003,0.536 C15.0520003,0.536 11.8520003,3.096 11.8520003,6.744 C11.8520003,10.648 14.6520003,13.4 18.5240003,13.4 C22.3960003,13.4 25.1960003,10.648 25.1960003,6.744 C25.1960003,3.096 21.9960003,0.536 18.5240003,0.536 L18.5240003,0.536 Z M18.5240003,3.576 C20.3960003,3.576 21.9320003,5.096 21.9320003,6.76 C21.9320003,8.84 20.3960003,10.36 18.5240003,10.36 C16.6520003,10.36 15.1160003,8.84 15.1160003,6.76 C15.1160003,5.096 16.6520003,3.576 18.5240003,3.576 L18.5240003,3.576 Z M30.6880003,8.008 L31.0080003,8.008 C32.0320003,8.008 33.5840003,7.864 33.5840003,9.32 C33.5840003,10.648 32.0160003,10.6 31.0880003,10.6 L30.6880003,10.6 L30.6880003,8.008 Z M32.3840003,13 C34.5920003,13 36.7520003,12.168 36.7520003,9.64 C36.7520003,7.96 36.0160003,6.792 34.2880003,6.568 L34.2880003,6.536 C35.2640003,6.04 35.6160003,5.16 35.6160003,4.072 C35.6160003,1.768 34.1760003,0.936 32.0320003,0.936 L27.5520003,0.936 L27.5520003,13 L32.3840003,13 Z M30.6880003,3.336 L30.9120003,3.336 C31.7600003,3.336 32.7360003,3.4 32.7360003,4.504 C32.7360003,5.528 31.8720003,5.672 31.0400003,5.672 L30.6880003,5.672 L30.6880003,3.336 Z M46.1480003,3.592 L46.1480003,0.936 L39.2840003,0.936 L39.2840003,13 L46.1480003,13 L46.1480003,10.344 L42.4200003,10.344 L42.4200003,8.264 L45.9560003,8.264 L45.9560003,5.608 L42.4200003,5.608 L42.4200003,3.592 L46.1480003,3.592 Z M55.2240002,8.056 C56.9360002,7.752 57.8640002,6.312 57.8640002,4.648 C57.8640002,2.072 56.0560002,0.936 53.6720002,0.936 L48.9840002,0.936 L48.9840002,13 L52.1200002,13 L52.1200002,8.36 L52.1520002,8.36 L55.1120002,13 L59.0160002,13 L55.2240002,8.056 Z M52.1200002,3.336 L52.4240002,3.336 C53.4480002,3.336 54.6000002,3.528 54.6000002,4.84 C54.6000002,6.152 53.4480002,6.344 52.4240002,6.344 L52.1200002,6.344 L52.1200002,3.336 Z M65.5640002,3.592 L68.1560002,3.592 L68.1560002,0.936 L59.8360002,0.936 L59.8360002,3.592 L62.4280002,3.592 L62.4280002,13 L65.5640002,13 L65.5640002,3.592 Z M75.8600002,13 L78.9800002,13 L79.9880002,6.056 L80.0200002,6.056 L82.7880002,13 L84.0360002,13 L86.9320002,6.056 L86.9640002,6.056 L87.8440002,13 L90.9800002,13 L89.1560002,0.936 L86.0360002,0.936 L83.4440002,7.384 L80.9960002,0.936 L77.9080002,0.936 L75.8600002,13 Z M99.2720001,0.536 C95.8000001,0.536 92.6000001,3.096 92.6000001,6.744 C92.6000001,10.648 95.4000001,13.4 99.2720001,13.4 C103.144,13.4 105.944,10.648 105.944,6.744 C105.944,3.096 102.744,0.536 99.2720001,0.536 L99.2720001,0.536 Z M99.2720001,3.576 C101.144,3.576 102.68,5.096 102.68,6.76 C102.68,8.84 101.144,10.36 99.2720001,10.36 C97.4000001,10.36 95.8640001,8.84 95.8640001,6.76 C95.8640001,5.096 97.4000001,3.576 99.2720001,3.576 L99.2720001,3.576 Z M108.3,13 L111.436,13 L111.436,5.608 L111.468,5.608 L117.212,13 L120.348,13 L120.348,0.936 L117.212,0.936 L117.212,8.312 L117.18,8.312 L111.436,0.936 L108.3,0.936 L108.3,13 Z M123.296,13 L127.744,13 C131.088,13 133.872,10.36 133.872,6.968 C133.872,3.576 131.104,0.936 127.744,0.936 L123.296,0.936 L123.296,13 Z M126.432,3.592 L127.168,3.592 C129.184,3.592 130.608,4.808 130.608,6.968 C130.608,9.32 129.008,10.344 127.136,10.344 L126.432,10.344 L126.432,3.592 Z M143.62,10.904 L144.404,13 L147.748,13 L143.204,0.936 L139.78,0.936 L135.14,13 L138.468,13 L139.3,10.904 L143.62,10.904 Z M142.772,8.504 L140.164,8.504 L141.46,4.664 L141.492,4.664 L142.772,8.504 Z M150.008,0.936 L146.6,0.936 L151.672,13 L154.104,13 L159.256,0.936 L155.848,0.936 L152.92,8.264 L150.008,0.936 Z M164.076,0.936 L160.94,0.936 L160.94,13 L164.076,13 L164.076,0.936 Z M80.9080002,19.936 L77.7720002,19.936 L77.7720002,32 L80.9080002,32 L80.9080002,19.936 Z M83.8560002,32 L86.9920002,32 L86.9920002,24.608 L87.0240002,24.608 L92.7680002,32 L95.9040002,32 L95.9040002,19.936 L92.7680002,19.936 L92.7680002,27.312 L92.7360002,27.312 L86.9920002,19.936 L83.8560002,19.936 L83.8560002,32 Z M106.724,20.608 C105.652,20 104.164,19.616 102.948,19.616 C100.532,19.616 98.7880002,21.216 98.7880002,23.664 C98.7880002,26 100.084,26.512 102.052,27.072 C102.724,27.264 103.956,27.568 103.956,28.448 C103.956,29.296 103.172,29.664 102.436,29.664 C101.364,29.664 100.436,29.104 99.6520002,28.416 L98.3080002,30.944 C99.5400002,31.808 101.028,32.32 102.548,32.32 C103.764,32.32 105.028,31.984 105.972,31.184 C106.932,30.368 107.22,29.136 107.22,27.936 C107.22,25.984 105.924,25.136 104.244,24.64 L103.444,24.4 C102.9,24.224 102.052,23.952 102.052,23.248 C102.052,22.576 102.82,22.24 103.396,22.24 C104.164,22.24 104.9,22.56 105.476,23.04 L106.724,20.608 Z M114.408,22.592 L117,22.592 L117,19.936 L108.68,19.936 L108.68,22.592 L111.272,22.592 L111.272,32 L114.408,32 L114.408,22.592 Z M122.172,19.936 L119.036,19.936 L119.036,32 L122.172,32 L122.172,19.936 Z M129.92,22.592 L132.512,22.592 L132.512,19.936 L124.192,19.936 L124.192,22.592 L126.784,22.592 L126.784,32 L129.92,32 L129.92,22.592 Z M141.876,19.936 L141.876,26.288 C141.876,27.856 141.764,29.568 139.748,29.568 C137.732,29.568 137.62,27.856 137.62,26.288 L137.62,19.936 L134.484,19.936 L134.484,26.72 C134.484,28.272 134.548,29.808 135.748,30.976 C136.756,31.968 138.34,32.32 139.748,32.32 C141.156,32.32 142.74,31.968 143.748,30.976 C144.948,29.808 145.012,28.272 145.012,26.72 L145.012,19.936 L141.876,19.936 Z M152.696,22.592 L155.288,22.592 L155.288,19.936 L146.968,19.936 L146.968,22.592 L149.56,22.592 L149.56,32 L152.696,32 L152.696,22.592 Z M164.188,22.592 L164.188,19.936 L157.324,19.936 L157.324,32 L164.188,32 L164.188,29.344 L160.46,29.344 L160.46,27.264 L163.996,27.264 L163.996,24.608 L160.46,24.608 L160.46,22.592 L164.188,22.592 Z" id="ROBERT-MONDAVI-Copy" sketch:type="MSShapeGroup"></path>
            <path d="M188.16,1.656 L188.16,0.936 L183.296,0.936 L183.296,13 L184.064,13 L184.064,6.76 L188.048,6.76 L188.048,6.04 L184.064,6.04 L184.064,1.656 L188.16,1.656 Z M196.836,0.776 C193.428,0.776 190.58,3.576 190.58,6.968 C190.58,10.36 193.444,13.16 196.836,13.16 C200.228,13.16 203.092,10.36 203.092,6.968 C203.092,3.576 200.228,0.776 196.836,0.776 L196.836,0.776 Z M196.836,1.496 C199.828,1.496 202.324,3.992 202.324,6.968 C202.324,9.928 199.828,12.44 196.836,12.44 C193.828,12.44 191.348,9.944 191.348,6.968 C191.348,3.992 193.828,1.496 196.836,1.496 L196.836,1.496 Z M207.88,7.288 C209.88,7.32 211.336,6.232 211.336,4.136 C211.336,3.112 210.984,2.152 210.12,1.544 C209.304,0.952 208.344,0.936 207.368,0.936 L205.864,0.936 L205.864,13 L206.632,13 L206.632,7.288 L207.016,7.288 L210.952,13 L211.832,13 L207.88,7.288 Z M206.632,6.568 L206.632,1.656 L207.128,1.656 C207.832,1.656 208.648,1.624 209.288,1.928 C210.152,2.312 210.568,3.208 210.568,4.104 C210.568,4.824 210.296,5.544 209.72,6.008 C209.112,6.536 208.36,6.568 207.608,6.568 L206.632,6.568 Z M220.096,0.936 L219.328,0.936 L223.36,13.4 L227.952,2.248 L232.56,13.4 L236.624,0.936 L235.856,0.936 L232.512,11.304 L228,0.328 L223.488,11.304 L220.096,0.936 Z M239.78,0.936 L239.012,0.936 L239.012,13 L239.78,13 L239.78,0.936 Z M254.168,0.936 L253.4,0.936 L253.4,11.464 L243.272,0.776 L243.272,13 L244.04,13 L244.04,2.632 L254.168,13.4 L254.168,0.936 Z M263.42,1.656 L263.42,0.936 L257.66,0.936 L257.66,13 L263.42,13 L263.42,12.28 L258.428,12.28 L258.428,6.76 L263.292,6.76 L263.292,6.04 L258.428,6.04 L258.428,1.656 L263.42,1.656 Z M276.292,1.432 C277.124,1.432 277.764,2.12 277.764,2.936 C277.764,4.152 276.676,4.664 275.828,5.336 C275.396,4.616 274.756,3.976 274.756,3.112 C274.756,2.264 275.412,1.432 276.292,1.432 L276.292,1.432 Z M280.708,13 L281.54,13 L279.7,10.552 L281.38,8.632 L280.788,8.312 L279.252,9.992 L276.276,5.928 C277.444,5.128 278.532,4.328 278.532,2.952 C278.532,1.72 277.588,0.712 276.34,0.712 C275.076,0.712 273.988,1.752 273.988,3.032 C273.988,4.072 274.692,4.888 275.252,5.672 C273.604,6.712 271.588,7.944 271.588,10.056 C271.588,11.8 272.964,13.24 274.74,13.24 C276.308,13.24 277.844,12.136 279.188,11 L280.708,13 Z M275.7,6.28 L278.74,10.392 C277.62,11.32 276.148,12.52 274.74,12.52 C273.332,12.52 272.356,11.336 272.356,9.976 C272.356,8.456 273.78,7.528 274.932,6.792 L275.7,6.28 Z M188.16,20.656 L188.16,19.936 L183.296,19.936 L183.296,32 L184.064,32 L184.064,25.76 L188.048,25.76 L188.048,25.04 L184.064,25.04 L184.064,20.656 L188.16,20.656 Z M196.836,19.776 C193.428,19.776 190.58,22.576 190.58,25.968 C190.58,29.36 193.444,32.16 196.836,32.16 C200.228,32.16 203.092,29.36 203.092,25.968 C203.092,22.576 200.228,19.776 196.836,19.776 L196.836,19.776 Z M196.836,20.496 C199.828,20.496 202.324,22.992 202.324,25.968 C202.324,28.928 199.828,31.44 196.836,31.44 C193.828,31.44 191.348,28.944 191.348,25.968 C191.348,22.992 193.828,20.496 196.836,20.496 L196.836,20.496 Z M211.4,19.776 C207.992,19.776 205.144,22.576 205.144,25.968 C205.144,29.36 208.008,32.16 211.4,32.16 C214.792,32.16 217.656,29.36 217.656,25.968 C217.656,22.576 214.792,19.776 211.4,19.776 L211.4,19.776 Z M211.4,20.496 C214.392,20.496 216.888,22.992 216.888,25.968 C216.888,28.928 214.392,31.44 211.4,31.44 C208.392,31.44 205.912,28.944 205.912,25.968 C205.912,22.992 208.392,20.496 211.4,20.496 L211.4,20.496 Z M220.428,32 L222.604,32 C224.396,32 225.82,31.68 227.148,30.4 C228.364,29.232 229.004,27.648 229.004,25.984 C229.004,24.256 228.348,22.64 227.084,21.456 C225.756,20.224 224.364,19.936 222.604,19.936 L220.428,19.936 L220.428,32 Z M221.196,31.28 L221.196,20.656 L222.588,20.656 C224.092,20.656 225.34,20.928 226.492,21.968 C227.628,23.008 228.236,24.448 228.236,25.984 C228.236,27.424 227.66,28.8 226.636,29.824 C225.484,30.96 224.172,31.28 222.588,31.28 L221.196,31.28 Z M243.748,21.472 C243.172,20.432 242.02,19.776 240.804,19.776 C238.996,19.776 237.716,21.04 237.716,22.832 C237.716,23.792 238.164,24.496 238.964,24.992 L241.14,26.144 C242.18,26.656 243.572,27.232 243.572,28.592 C243.572,30.192 242.18,31.44 240.596,31.44 C239.14,31.44 238.196,30.544 237.684,29.264 L237.012,29.568 C237.572,31.12 238.884,32.16 240.564,32.16 C242.516,32.16 244.34,30.656 244.34,28.656 C244.34,27.568 243.876,26.832 242.964,26.256 L240.66,25.056 C239.684,24.592 238.484,24.064 238.484,22.8 C238.484,21.536 239.46,20.496 240.756,20.496 C241.892,20.496 242.66,21.056 243.204,21.92 L243.748,21.472 Z M256.808,21.344 C255.736,20.352 254.264,19.776 252.808,19.776 C249.384,19.776 246.504,22.56 246.504,25.984 C246.504,29.36 249.432,32.16 252.792,32.16 C254.28,32.16 255.672,31.6 256.808,30.656 L256.808,29.6 C255.912,30.688 254.152,31.44 252.76,31.44 C251.336,31.44 249.896,30.736 248.888,29.776 C247.88,28.784 247.272,27.456 247.272,26.048 C247.272,23.088 249.752,20.496 252.76,20.496 C254.248,20.496 255.88,21.264 256.808,22.4 L256.808,21.344 Z M260.716,19.936 L259.948,19.936 L259.948,32 L260.716,32 L260.716,19.936 Z M269.968,20.656 L269.968,19.936 L264.208,19.936 L264.208,32 L269.968,32 L269.968,31.28 L264.976,31.28 L264.976,25.76 L269.84,25.76 L269.84,25.04 L264.976,25.04 L264.976,20.656 L269.968,20.656 Z M284.116,19.936 L283.348,19.936 L283.348,30.464 L273.22,19.776 L273.22,32 L273.988,32 L273.988,21.632 L284.116,32.4 L284.116,19.936 Z M297.192,21.344 C296.12,20.352 294.648,19.776 293.192,19.776 C289.768,19.776 286.888,22.56 286.888,25.984 C286.888,29.36 289.816,32.16 293.176,32.16 C294.664,32.16 296.056,31.6 297.192,30.656 L297.192,29.6 C296.296,30.688 294.536,31.44 293.144,31.44 C291.72,31.44 290.28,30.736 289.272,29.776 C288.264,28.784 287.656,27.456 287.656,26.048 C287.656,23.088 290.136,20.496 293.144,20.496 C294.632,20.496 296.264,21.264 297.192,22.4 L297.192,21.344 Z M306.092,20.656 L306.092,19.936 L300.332,19.936 L300.332,32 L306.092,32 L306.092,31.28 L301.1,31.28 L301.1,25.76 L305.964,25.76 L305.964,25.04 L301.1,25.04 L301.1,20.656 L306.092,20.656 Z" id="FOR-WINE-&amp;-Copy" sketch:type="MSShapeGroup"></path>
        </g>
    </g>
</svg>