<?xml version="1.0" encoding="UTF-8" standalone="no"?>
<svg width="265px" height="45px" viewBox="0 0 265 45" version="1.1" xmlns="http://www.w3.org/2000/svg" xmlns:xlink="http://www.w3.org/1999/xlink" xmlns:sketch="http://www.bohemiancoding.com/sketch/ns">
    <!-- Generator: Sketch 3.3.1 (12002) - http://www.bohemiancoding.com/sketch -->
    <title>leaves</title>
    <desc>Created with Sketch.</desc>
    <defs>
        <path id="path-1" d="M0.06,0 L345,0 L345,48.94 L0.06,48.94"></path>
        <path id="path-3" d="M0.06,0 L345,0 L345,48.94 L0.06,48.94"></path>
        <path id="path-5" d="M0.06,0 L345,0 L345,48.94 L0.06,48.94"></path>
        <path id="path-7" d="M0.06,0 L345,0 L345,48.94 L0.06,48.94"></path>
        <path id="path-9" d="M0.06,0 L345,0 L345,48.94 L0.06,48.94"></path>
        <path id="path-11" d="M45.2220495,48.94 L98.795,38.134 L91.1030538,0 L0.225009198,0 L10.0967508,48.94 L45.2220495,48.94"></path>
        <path id="path-13" d="M0.06,0 L345,0 L345,48.94 L0.06,48.94"></path>
    </defs>
    <g id="Page-1" stroke="none" stroke-width="1" fill="none" fill-rule="evenodd" sketch:type="MSPage">
        <g id="leaves" sketch:type="MSLayerGroup" transform="translate(-38.000000, 0.000000)">
            <g id="Group-20">
                <mask id="mask-2" sketch:name="Clip 2" fill="white">
                    <use xlink:href="#path-1"></use>
                </mask>
                <g id="Clip-2"></g>
                <path d="M275.26,24.147 C274.286,23.758 273.317,23.357 272.338,22.983 C271.418,22.63 270.487,22.305 269.374,21.9 C269.113,22.503 268.824,23.17 268.449,24.037 C268.011,23.843 267.52,23.698 267.105,23.433 C264.902,22.026 264.002,22.036 261.891,23.5 C261.508,23.765 261.056,23.93 260.635,24.142 C260.072,20.453 259.531,16.762 258.941,13.078 C257.923,6.707 256.614,0.369 255.923,-6.037 C255.402,-10.856 255.659,-15.759 255.569,-20.624 C256.092,-20.27 256.695,-19.995 257.122,-19.549 C259.742,-16.816 262.322,-14.044 264.915,-11.285 C265.274,-10.268 265.727,-9.273 265.966,-8.228 C266.174,-7.314 266.1,-6.34 266.225,-5.402 C266.606,-2.533 266.927,0.351 267.457,3.194 C267.954,5.857 268.359,8.614 269.393,11.083 C271.13,15.237 273.332,19.196 275.339,23.237 C275.313,23.54 275.286,23.843 275.26,24.147" id="Fill-1" fill="#81AC01" sketch:type="MSShapeGroup" mask="url(#mask-2)"></path>
                <path d="M259.129,23.252 C258.076,22.113 257.023,20.973 255.854,19.708 C255.545,20.053 255.136,20.51 254.721,20.973 C254.207,20.78 253.724,20.598 253.186,20.396 C252.694,21.116 252.182,21.868 251.665,22.625 C249.523,20.797 248.53,21.1 247.654,23.695 C247.359,24.569 246.911,25.392 246.49,26.336 C246.045,26.02 245.645,25.736 245.245,25.452 C245.444,24.945 245.859,24.413 245.805,23.935 C245.596,22.109 245.228,20.303 244.935,18.486 C244.397,15.144 243.811,11.808 243.356,8.454 C242.791,4.281 242.243,0.101 241.863,-4.091 C241.419,-8.996 241.163,-13.918 240.825,-18.831 C241.186,-23.386 241.548,-27.94 241.909,-32.495 C242.448,-31.773 242.928,-30.997 243.538,-30.341 C245.799,-27.913 247.987,-25.396 250.446,-23.181 C251.536,-22.2 252.502,-20.514 254.483,-20.988 C254.246,-17.253 253.718,-13.508 253.852,-9.786 C253.994,-5.841 254.578,-1.885 255.307,2.003 C256.405,7.864 257.836,13.663 259.031,19.507 C259.277,20.711 259.107,22.001 259.129,23.252 L259.129,23.252 Z M242.771,-11.205 C243.041,-7.794 243.212,-3.623 243.737,0.504 C244.448,6.092 245.363,11.658 246.329,17.209 C246.751,19.63 246.903,19.566 249.393,19.315 C250.081,19.246 250.803,19.441 251.502,19.559 C252.603,19.743 253.429,19.618 253.414,18.207 C253.388,15.776 253.465,13.34 253.356,10.913 C253.304,9.745 253.152,8.482 252.653,7.453 C251.494,5.066 249.981,2.851 248.832,0.459 C247.916,-1.447 246.847,-3.475 246.699,-5.512 C246.436,-9.119 246.927,-12.775 246.885,-16.408 C246.868,-17.784 246.344,-19.188 245.856,-20.506 C245.675,-20.993 244.932,-21.27 244.445,-21.643 C244.073,-21.154 243.426,-20.693 243.374,-20.172 C243.105,-17.449 242.988,-14.709 242.771,-11.205 L242.771,-11.205 Z" id="Fill-3" fill="#80AB01" sketch:type="MSShapeGroup" mask="url(#mask-2)"></path>
                <path d="M224.503,19.008 C223.569,18.256 222.463,17.64 221.744,16.72 C220.656,15.329 219.662,15.536 218.457,16.402 C218.036,16.705 217.533,16.894 217.023,17.158 C216.356,15.208 215.917,13.208 215,11.458 C214.132,9.803 212.66,10.928 211.703,11.523 C210.335,12.372 210.189,11.853 210.253,10.651 C210.678,10.273 211.248,9.974 211.501,9.503 C212.45,7.738 213.293,5.916 214.181,4.118 C216.175,0.078 218.147,-3.973 220.194,-7.986 C220.505,-8.595 221.099,-9.136 221.69,-9.505 C222.418,-9.96 223.279,-10.303 223.318,-8.799 C223.366,-6.921 223.479,-5.043 223.606,-3.167 C223.815,-0.09 224.062,2.985 224.287,6.061 C224.47,8.547 224.734,11.032 224.794,13.521 C224.838,15.347 224.609,17.179 224.503,19.008" id="Fill-4" fill="#82AC02" sketch:type="MSShapeGroup" mask="url(#mask-2)"></path>
                <path d="M244.787,24.732 C243.551,23.801 242.314,22.87 241.013,21.89 C240.347,22.382 239.604,22.931 238.754,23.56 C238.363,22.951 237.863,22.373 237.589,21.703 C236.944,20.13 236.099,19.519 234.598,20.764 C234.392,20.935 234.085,20.984 233.686,21.146 L233.686,19.282 C235.158,18.34 234.22,16.974 234.065,15.942 C233.213,10.226 233.55,4.714 236.48,-0.39 C237.286,-1.794 238.506,-2.961 239.809,-4.576 C240.163,-3.514 240.371,-3.083 240.448,-2.63 C241.293,2.325 242.149,7.278 242.939,12.242 C243.6,16.398 244.174,20.568 244.787,24.732" id="Fill-5" fill="#81AC01" sketch:type="MSShapeGroup" mask="url(#mask-2)"></path>
                <path d="M211.139,6.313 C210.948,5.88 210.619,5.455 210.594,5.012 C210.524,3.783 210.723,2.523 210.513,1.328 C210.436,0.898 209.535,0.53 208.945,0.301 C208.481,0.121 207.918,0.197 207.398,0.159 C207.756,-1.258 208.114,-2.675 208.472,-4.092 L208.469,-4.089 C208.954,-4.774 209.518,-5.417 209.91,-6.152 C211.879,-9.831 213.715,-13.583 215.772,-17.211 C217.274,-19.865 219.047,-22.367 220.698,-24.936 C221.536,-25.539 222.373,-26.142 223.21,-26.744 C223.21,-22.794 223.308,-18.839 223.16,-14.894 C223.1,-13.284 223.475,-11.196 220.909,-10.751 C220.444,-10.671 220.056,-9.966 219.697,-9.499 C217.029,-6.021 215.278,-2.048 213.492,1.913 C212.81,3.426 211.929,4.849 211.139,6.313" id="Fill-6" fill="#81AC01" sketch:type="MSShapeGroup" mask="url(#mask-2)"></path>
                <path d="M290.385,-1.928 C291.139,-0.938 292.171,0.046 290.193,1.109 C292.099,3.019 293.899,4.824 295.867,6.796 C295.145,7.142 294.846,7.311 294.527,7.432 C293.621,7.779 293.481,8.231 294.132,9.023 C294.475,9.439 294.581,10.05 294.794,10.573 C294.492,10.687 294.149,10.956 293.895,10.889 C292.372,10.492 290.869,10.018 289.36,9.569 C286.954,7.701 284.452,5.942 282.167,3.936 C279.665,1.74 277.362,-0.684 274.973,-3.009 C275.555,-2.739 276.134,-2.462 276.72,-2.2 C277.69,-1.766 278.632,-1.214 279.647,-0.94 C281.36,-0.48 282.388,-1.325 282.123,-3.075 C281.941,-4.271 281.414,-5.442 280.888,-6.552 C280.066,-8.283 279.114,-9.953 278.218,-11.648 C280.595,-9.53 282.909,-7.335 285.373,-5.322 C286.929,-4.05 288.707,-3.05 290.385,-1.928" id="Fill-7" fill="#81AC01" sketch:type="MSShapeGroup" mask="url(#mask-2)"></path>
                <path d="M232.887,17.138 C231.332,15.443 228.7,15.655 227.449,17.545 C227.08,18.103 226.59,18.581 226.155,19.095 C225.896,14.361 225.636,9.626 225.376,4.893 C227.474,6.311 227.391,6.23 228.61,3.794 C229.559,1.9 230.842,0.166 232.049,-1.589 C233.83,-4.179 235.851,-6.622 237.427,-9.327 C238.316,-10.852 238.521,-12.776 239.033,-14.52 C239.267,-13.449 239.676,-12.379 239.695,-11.303 C239.734,-9.124 239.924,-7.138 238.118,-5.072 C235.717,-2.326 233.719,0.888 232.767,4.643 C231.945,7.883 232.514,10.94 232.999,14.083 C233.152,15.072 232.935,16.118 232.887,17.138" id="Fill-8" fill="#80AB01" sketch:type="MSShapeGroup" mask="url(#mask-2)"></path>
                <path d="M225.376,4.893 C225.636,9.626 225.896,14.361 226.155,19.095 C226.037,19.581 225.92,20.068 225.699,20.978 C225.124,20.031 224.814,19.519 224.503,19.008 C224.609,17.179 224.838,15.347 224.794,13.521 C224.734,11.032 224.47,8.547 224.287,6.061 C224.062,2.985 223.815,-0.09 223.606,-3.167 C223.479,-5.043 223.366,-6.921 223.318,-8.799 C223.279,-10.303 222.418,-9.96 221.69,-9.505 C221.099,-9.136 220.505,-8.595 220.194,-7.986 C218.147,-3.973 216.175,0.078 214.181,4.118 C213.293,5.916 212.45,7.738 211.501,9.503 C211.248,9.974 210.678,10.273 210.253,10.651 C210.548,9.205 210.844,7.759 211.139,6.313 C211.929,4.849 212.81,3.426 213.492,1.913 C215.278,-2.048 217.029,-6.021 219.697,-9.499 C220.056,-9.966 220.444,-10.671 220.909,-10.751 C223.475,-11.196 223.1,-13.284 223.16,-14.894 C223.308,-18.839 223.21,-22.794 223.21,-26.744 C223.133,-27.788 223.633,-28.25 224.659,-28.182 C224.761,-27.605 224.961,-27.025 224.947,-26.451 C224.88,-23.524 224.656,-20.597 224.678,-17.671 C224.712,-13.025 224.897,-8.38 225.019,-3.734 C225.134,-2.295 225.249,-0.855 225.365,0.585 C225.364,0.822 225.363,1.06 225.362,1.298 C225.365,2.019 225.369,2.739 225.373,3.46 C225.374,3.938 225.375,4.415 225.376,4.893" id="Fill-9" fill="#8BB21C" sketch:type="MSShapeGroup" mask="url(#mask-2)"></path>
                <path d="M232.887,17.138 C232.935,16.118 233.152,15.072 232.999,14.083 C232.514,10.94 231.945,7.883 232.767,4.643 C233.719,0.888 235.717,-2.326 238.118,-5.072 C239.924,-7.138 239.734,-9.124 239.695,-11.303 C239.676,-12.379 239.267,-13.449 239.033,-14.52 L239.033,-15.233 C239.034,-15.475 239.034,-15.717 239.034,-15.958 C239.032,-16.196 239.031,-16.435 239.03,-16.672 L239.03,-17.395 C239.031,-17.873 239.032,-18.351 239.033,-18.83 C239.63,-18.83 240.228,-18.831 240.825,-18.831 C241.163,-13.918 241.419,-8.996 241.863,-4.091 C242.243,0.101 242.791,4.281 243.356,8.454 C243.811,11.808 244.397,15.144 244.935,18.486 C245.228,20.303 245.596,22.109 245.805,23.935 C245.859,24.413 245.444,24.945 245.245,25.452 C245.092,25.212 244.94,24.972 244.787,24.732 C244.174,20.568 243.6,16.398 242.939,12.242 C242.149,7.278 241.293,2.325 240.448,-2.63 C240.371,-3.083 240.163,-3.514 239.809,-4.576 C238.506,-2.961 237.286,-1.794 236.48,-0.39 C233.55,4.714 233.213,10.226 234.065,15.942 C234.22,16.974 235.158,18.34 233.686,19.282 C233.42,18.567 233.153,17.853 232.887,17.138" id="Fill-10" fill="#8BB21B" sketch:type="MSShapeGroup" mask="url(#mask-2)"></path>
                <path d="M275.26,24.147 C275.286,23.843 275.313,23.54 275.339,23.237 C275.437,22.863 275.712,22.428 275.606,22.127 C274.969,20.321 274.244,18.545 273.548,16.759 C273.898,16.372 274.608,15.895 274.538,15.611 C274.085,13.787 273.465,12.003 272.891,10.209 C272.711,9.647 272.185,8.799 272.375,8.593 C272.787,8.145 273.559,7.807 274.18,7.813 C276.484,7.833 278.788,8.013 281.092,8.132 L281.81,8.132 C282.632,8.609 283.429,8.941 283.971,7.767 C284.449,8.01 284.928,8.254 285.406,8.498 C284.503,9.894 283.167,9.126 282.042,9.08 C279.789,8.986 277.546,8.643 275.293,8.52 C274.294,8.466 273.275,8.696 273.678,10.164 C274.353,12.627 275.055,15.084 275.698,17.556 C276.312,19.92 277.028,20.435 279.414,19.893 C285.492,18.512 291.56,17.087 297.633,15.681 C298.47,16.028 299.307,16.375 300.144,16.723 C298.243,17.021 296.343,17.32 294.441,17.619 C294.347,17.529 294.251,17.44 294.155,17.352 C294.112,17.442 294.07,17.533 294.027,17.624 C292.673,17.956 291.318,18.285 289.964,18.62 C286.955,19.365 286.956,19.366 286.395,22.296 C283.973,22.126 281.541,21.789 279.124,21.879 C278.315,21.909 277.332,22.89 276.816,23.686 C276.308,24.47 276.112,25.039 275.26,24.147" id="Fill-11" fill="#83AE03" sketch:type="MSShapeGroup" mask="url(#mask-2)"></path>
                <path d="M259.129,23.252 C259.107,22.001 259.277,20.711 259.031,19.507 C257.836,13.663 256.405,7.864 255.307,2.003 C254.578,-1.885 253.994,-5.841 253.852,-9.786 C253.718,-13.508 254.246,-17.253 254.483,-20.988 C254.604,-21.109 254.723,-21.23 254.842,-21.351 C255.084,-21.108 255.327,-20.866 255.569,-20.624 C255.659,-15.759 255.402,-10.856 255.923,-6.037 C256.614,0.369 257.923,6.707 258.941,13.078 C259.531,16.762 260.072,20.453 260.635,24.142 C260.133,23.845 259.631,23.549 259.129,23.252" id="Fill-12" fill="#8BB21C" sketch:type="MSShapeGroup" mask="url(#mask-2)"></path>
                <path d="M300.144,16.723 C299.307,16.375 298.47,16.028 297.633,15.681 C297.527,15.48 297.476,15.181 297.31,15.092 C294.549,13.599 291.773,12.132 289.001,10.66 C289.121,10.296 289.24,9.933 289.36,9.569 C290.869,10.018 292.372,10.492 293.895,10.889 C294.149,10.956 294.492,10.687 294.794,10.573 C297.246,12.352 299.698,14.131 302.149,15.909 C302.062,16.116 301.976,16.322 301.89,16.528 C301.308,16.593 300.726,16.658 300.144,16.723" id="Fill-13" fill="#8CB60E" sketch:type="MSShapeGroup" mask="url(#mask-2)"></path>
                <path d="M206.229,-1.17 C206.692,-1.826 207.145,-2.49 207.627,-3.132 C207.882,-3.472 208.189,-3.773 208.472,-4.092 C208.114,-2.675 207.756,-1.258 207.398,0.159 C207.008,-0.284 206.618,-0.727 206.229,-1.17" id="Fill-14" fill="#8BB21B" sketch:type="MSShapeGroup" mask="url(#mask-2)"></path>
                <path d="M294.027,17.624 C294.07,17.533 294.112,17.442 294.155,17.352 C294.251,17.44 294.347,17.529 294.441,17.619 C294.304,17.62 294.166,17.622 294.027,17.624" id="Fill-15" fill="#8CB60E" sketch:type="MSShapeGroup" mask="url(#mask-2)"></path>
                <path d="M264.915,-11.285 C265.036,-11.644 265.156,-12.004 265.277,-12.363 C267.031,-10.558 268.747,-8.713 270.552,-6.96 C271.968,-5.584 273.495,-4.322 274.973,-3.009 C277.362,-0.684 279.665,1.74 282.167,3.936 C284.452,5.942 286.954,7.701 289.36,9.569 C289.24,9.933 289.121,10.296 289.001,10.66 C287.803,9.939 286.604,9.218 285.406,8.498 C284.928,8.254 284.449,8.01 283.971,7.767 C283.491,7.408 283.012,7.048 282.532,6.689 C282.141,6.243 281.783,5.761 281.354,5.355 C278.124,2.304 274.853,-0.703 271.655,-3.787 C270.42,-4.979 269.342,-6.335 267.945,-7.891 C267.423,-2.615 268.283,2.064 269.594,6.694 C270.1,8.074 270.577,9.465 271.118,10.831 C271.904,12.817 272.736,14.784 273.549,16.759 C274.244,18.545 274.969,20.321 275.606,22.127 C275.712,22.428 275.437,22.863 275.339,23.237 C273.332,19.196 271.13,15.237 269.393,11.083 C268.359,8.614 267.954,5.857 267.457,3.194 C266.927,0.351 266.606,-2.533 266.225,-5.402 C266.1,-6.34 266.174,-7.314 265.966,-8.228 C265.727,-9.273 265.274,-10.268 264.915,-11.285" id="Fill-16" fill="#8BB21B" sketch:type="MSShapeGroup" mask="url(#mask-2)"></path>
                <path d="M242.771,-11.205 C242.988,-14.709 243.105,-17.449 243.374,-20.172 C243.426,-20.693 244.073,-21.154 244.445,-21.643 C244.932,-21.27 245.675,-20.993 245.856,-20.506 C246.344,-19.188 246.868,-17.784 246.885,-16.408 C246.927,-12.775 246.436,-9.119 246.699,-5.512 C246.847,-3.475 247.916,-1.447 248.832,0.459 C249.981,2.851 251.494,5.066 252.653,7.453 C253.152,8.482 253.304,9.745 253.356,10.913 C253.465,13.34 253.388,15.776 253.414,18.207 C253.429,19.618 252.603,19.743 251.502,19.559 C250.803,19.441 250.081,19.246 249.393,19.315 C246.903,19.566 246.751,19.63 246.329,17.209 C245.363,11.658 244.448,6.092 243.737,0.504 C243.212,-3.623 243.041,-7.794 242.771,-11.205" id="Fill-17" fill="#78A200" sketch:type="MSShapeGroup" mask="url(#mask-2)"></path>
                <path d="M224.659,-28.182 C224.896,-30.534 225.127,-32.887 225.369,-35.239 C225.842,-39.818 226.316,-44.397 226.81,-48.974 C226.839,-49.242 227.045,-49.491 227.168,-49.749 C227.647,-49.989 228.125,-50.229 228.603,-50.469 C228.843,-50.466 229.083,-50.463 229.323,-50.46 C231.238,-48.426 233.153,-46.392 235.068,-44.358 C235.07,-44.119 235.072,-43.879 235.074,-43.64 C235.315,-43.4 235.555,-43.16 235.795,-42.92 C235.914,-42.8 236.033,-42.68 236.152,-42.561 C236.914,-38.528 237.685,-34.497 238.435,-30.461 C238.663,-29.227 238.831,-27.98 239.027,-26.739 C239.029,-24.103 239.031,-21.466 239.033,-18.83 C239.032,-18.351 239.031,-17.873 239.03,-17.395 L239.03,-16.672 C239.031,-16.435 239.032,-16.196 239.034,-15.958 C239.034,-15.717 239.033,-15.475 239.033,-15.233 L239.033,-14.52 C238.521,-12.776 238.316,-10.852 237.427,-9.327 C235.851,-6.622 233.83,-4.179 232.049,-1.589 C230.842,0.166 229.559,1.9 228.61,3.794 C227.391,6.23 227.474,6.311 225.376,4.893 C225.375,4.415 225.374,3.938 225.373,3.46 C226.823,2.732 225.544,2.018 225.362,1.298 L225.365,0.584 C225.749,-0.895 226.389,-2.395 225.019,-3.734 C224.897,-8.38 224.712,-13.025 224.678,-17.671 C224.656,-20.597 224.88,-23.524 224.947,-26.451 C224.961,-27.025 224.761,-27.605 224.659,-28.182" id="Fill-18" fill="#78A100" sketch:type="MSShapeGroup" mask="url(#mask-2)"></path>
                <path d="M225.019,-3.734 C226.389,-2.395 225.749,-0.895 225.365,0.584 C225.249,-0.855 225.134,-2.295 225.019,-3.734" id="Fill-19" fill="#80AB01" sketch:type="MSShapeGroup" mask="url(#mask-2)"></path>
            </g>
            <path d="M225.362,1.298 C225.544,2.018 226.823,2.732 225.373,3.46 C225.369,2.739 225.365,2.019 225.362,1.298" id="Fill-21" fill="#80AB01" sketch:type="MSShapeGroup"></path>
            <g id="Group-25">
                <mask id="mask-4" sketch:name="Clip 23" fill="white">
                    <use xlink:href="#path-3"></use>
                </mask>
                <g id="Clip-23"></g>
                <path d="M285.406,8.498 C286.604,9.218 287.803,9.939 289.001,10.66 C291.773,12.132 294.549,13.599 297.31,15.092 C297.476,15.181 297.527,15.48 297.633,15.681 C291.56,17.087 285.492,18.512 279.414,19.893 C277.028,20.435 276.312,19.92 275.698,17.556 C275.055,15.084 274.353,12.627 273.678,10.164 C273.275,8.696 274.294,8.466 275.293,8.52 C277.546,8.643 279.789,8.986 282.042,9.08 C283.167,9.126 284.503,9.894 285.406,8.498" id="Fill-22" fill="#87B700" sketch:type="MSShapeGroup" mask="url(#mask-4)"></path>
                <path d="M269.594,6.694 C268.283,2.064 267.423,-2.615 267.945,-7.891 C269.342,-6.335 270.42,-4.979 271.655,-3.787 C274.853,-0.703 278.124,2.304 281.354,5.355 C281.783,5.761 282.141,6.243 282.532,6.689 C282.291,7.17 282.051,7.651 281.81,8.132 L281.092,8.132 C280.867,7.9 280.655,7.479 280.418,7.464 C278.115,7.323 275.807,7.285 273.504,7.145 C272.196,7.064 270.897,6.849 269.594,6.694" id="Fill-24" fill="#81AC00" sketch:type="MSShapeGroup" mask="url(#mask-4)"></path>
            </g>
            <path d="M269.594,6.694 C270.897,6.849 272.196,7.064 273.504,7.145 C275.807,7.285 278.115,7.323 280.418,7.464 C280.655,7.479 280.867,7.9 281.092,8.132 C278.788,8.013 276.484,7.833 274.18,7.813 C273.559,7.807 272.787,8.145 272.375,8.593 C272.185,8.799 272.711,9.647 272.891,10.209 C273.465,12.003 274.085,13.787 274.538,15.611 C274.608,15.895 273.898,16.372 273.548,16.759 C272.736,14.784 271.904,12.817 271.118,10.831 C270.577,9.465 270.1,8.074 269.594,6.694" id="Fill-26" fill="#82AC01" sketch:type="MSShapeGroup"></path>
            <g id="Group-36">
                <mask id="mask-6" sketch:name="Clip 28" fill="white">
                    <use xlink:href="#path-5"></use>
                </mask>
                <g id="Clip-28"></g>
                <path d="M281.81,8.132 C282.051,7.651 282.291,7.17 282.532,6.689 C283.012,7.048 283.491,7.408 283.971,7.767 C283.429,8.941 282.632,8.609 281.81,8.132" id="Fill-27" fill="#82AC01" sketch:type="MSShapeGroup" mask="url(#mask-6)"></path>
                <path d="M110.679,-23.613 C109.068,-23.73 107.451,-23.803 105.846,-23.98 C104.717,-24.106 103.801,-23.577 103.572,-22.684 C103.42,-22.089 103.977,-21.071 104.522,-20.585 C106.21,-19.078 108.065,-17.761 109.811,-16.317 C110.868,-15.444 111.841,-14.471 112.89,-13.507 C112.651,-13.247 112.346,-12.915 112.167,-12.721 C113.041,-11.178 113.889,-9.681 114.85,-7.983 C114.076,-7.9 113.68,-7.857 113.283,-7.814 C111.812,-4.51 114.308,-2.287 115.619,0.575 C114.504,0.911 113.431,1.235 112.301,1.576 L112.301,6.304 C111.155,6.141 110.035,5.98 108.915,5.82 C108.846,5.757 108.776,5.694 108.708,5.631 C108.73,5.741 108.753,5.852 108.775,5.962 C109.613,6.923 110.085,7.963 109.68,9.286 C109.564,9.666 109.695,10.121 109.712,10.542 C109.838,13.609 109.17,14.1 106.359,13.107 C106.127,13.912 106.127,15.005 105.591,15.445 C105.106,15.844 104.036,15.529 103.37,15.529 C103.041,16.243 102.71,17.13 102.235,17.932 C101.919,18.468 101.435,18.571 100.74,18.263 C99.269,17.608 98.183,18.07 97.368,19.472 C97.273,19.634 97.11,19.921 97.038,19.904 C95.781,19.606 95.946,20.773 95.532,21.335 C95.355,21.165 95.092,21.027 95.013,20.82 C94.397,19.218 93.762,17.621 93.235,15.989 C91.828,11.636 89.913,7.602 86.56,4.352 C85.911,3.724 85.459,2.78 85.191,1.898 C84.794,0.587 84.603,-0.793 84.398,-2.154 C84.235,-3.236 84.184,-4.333 84.075,-5.509 C84.58,-5.536 84.949,-5.556 85.319,-5.576 C89.651,-2.648 92.447,1.569 94.914,6.025 C96.843,9.509 98.622,13.075 100.481,16.597 C100.69,16.993 100.993,17.339 101.252,17.709 C101.359,17.64 101.466,17.572 101.573,17.503 C100.55,15.05 99.526,12.596 98.503,10.143 C98.963,10.389 99.455,10.591 99.876,10.893 C100.519,11.355 101.067,11.968 101.747,12.355 C102.106,12.56 102.66,12.421 103.126,12.437 C103.106,12.005 103.169,11.549 103.047,11.148 C102.877,10.59 102.554,10.081 102.322,9.54 C100.752,5.871 99.153,2.213 97.642,-1.48 C97.208,-2.542 97.03,-3.707 96.734,-4.825 C97.079,-4.517 97.499,-4.262 97.756,-3.893 C99.725,-1.065 101.68,1.774 103.604,4.633 C105.079,6.824 106.499,9.053 107.961,11.253 C108.062,11.406 108.306,11.465 108.483,11.567 C106.79,8.508 104.942,5.619 103.051,2.758 C101.431,0.307 99.818,-2.153 98.092,-4.53 C97.064,-5.947 95.686,-7.117 94.713,-8.564 C93.399,-10.517 91.783,-12.102 89.891,-13.451 C88.537,-14.716 87.225,-16.03 85.811,-17.225 C85.158,-17.776 84.307,-18.094 83.545,-18.518 C83.442,-19.385 83.394,-20.263 83.224,-21.117 C82.964,-22.421 82.415,-23.701 82.36,-25.006 C82.266,-27.231 82.459,-29.468 82.532,-31.701 C82.616,-31.7 82.701,-31.7 82.785,-31.7 C85.125,-29.869 87.517,-28.099 89.79,-26.189 C91.833,-24.471 93.747,-22.599 95.718,-20.794 C97.366,-19.019 99.035,-17.262 100.657,-15.464 C102.081,-13.886 103.454,-12.262 104.849,-10.658 C105.015,-9.971 105.239,-9.293 105.337,-8.597 C105.774,-5.498 107.912,-3.553 110.932,-3.552 C112.167,-2.186 113.402,-0.821 114.637,0.544 C114.752,0.444 114.866,0.343 114.98,0.242 C114.169,-0.78 113.353,-1.8 112.548,-2.828 C112.168,-3.313 111.809,-3.815 111.44,-4.309 C111.964,-6.072 111.517,-7.837 110.762,-9.297 C109.228,-12.266 107.365,-15.07 105.546,-17.882 C105.189,-18.435 104.475,-18.89 103.832,-19.092 C102.881,-19.389 101.787,-19.659 100.874,-18.257 C101.718,-17.515 102.639,-16.877 103.332,-16.047 C104.048,-15.189 104.812,-14.23 104.339,-12.934 C103.067,-14.298 101.817,-15.683 100.517,-17.02 C98.94,-18.64 97.321,-20.219 95.72,-21.816 C94.713,-23.023 93.835,-24.374 92.673,-25.407 C90.216,-27.592 87.612,-29.611 85.067,-31.698 C84.054,-32.29 83.041,-32.883 82.027,-33.475 C81.941,-33.56 81.856,-33.644 81.77,-33.729 C82.702,-34.194 83.005,-34.883 82.629,-35.894 C82.503,-36.232 82.558,-36.64 82.542,-37.017 C82.469,-38.779 82.595,-40.578 82.281,-42.296 C81.87,-44.544 81.112,-46.73 80.503,-48.943 C82.02,-48.184 83.544,-47.436 85.054,-46.662 C85.832,-46.264 86.587,-45.821 87.352,-45.398 C87.48,-45.058 87.518,-44.629 87.751,-44.393 C88.659,-43.475 89.62,-42.609 90.577,-41.741 C93.43,-39.148 96.486,-36.743 99.095,-33.923 C101.8,-30.999 104.728,-28.411 107.93,-26.079 C108.92,-25.358 109.767,-24.44 110.679,-23.613" id="Fill-29" fill="#81AC01" sketch:type="MSShapeGroup" mask="url(#mask-6)"></path>
                <path d="M77.9,23.253 C76.885,22.32 76.042,21.277 75.635,19.922 C75.556,19.657 75.312,19.261 75.115,19.243 C73.772,19.117 73.821,17.92 73.344,17.112 C73.005,16.538 72.494,16.068 72.128,15.507 C71.819,15.033 71.557,14.512 71.368,13.978 C71.128,13.303 71.016,12.667 70.042,12.591 C69.701,12.564 69.312,11.868 69.127,11.405 C68.788,10.554 68.69,9.598 68.29,8.784 C67.948,8.087 67.319,7.532 66.826,6.907 C66.477,6.465 66.073,6.048 65.814,5.556 C65.186,4.365 65.085,2.691 63.018,2.997 C62.668,3.049 62.224,2.471 61.824,2.185 C61.883,2.136 61.939,2.084 61.991,2.028 C62.242,1.873 62.649,1.771 62.721,1.557 C63.772,-1.574 64.778,-4.72 65.794,-7.862 C65.964,-8.539 66.134,-9.216 66.303,-9.892 C66.777,-10.089 67.479,-10.152 67.689,-10.506 C69.053,-12.811 70.304,-15.182 71.607,-17.523 C71.91,-18.066 72.201,-18.641 72.613,-19.096 C75.063,-21.795 77.365,-24.596 78.981,-27.897 C79.358,-25.708 79.648,-23.499 80.137,-21.335 C80.687,-18.905 81.222,-16.563 78.601,-14.926 C78.538,-14.887 78.515,-14.784 78.473,-14.711 C75.068,-10.855 73.183,-6.192 71.656,-1.396 C70.77,1.387 70.247,4.291 69.652,7.16 C69.412,8.32 69.417,9.53 69.311,10.717 C70.506,7.089 71.356,3.438 72.44,-0.142 C73.285,-2.931 74.421,-5.631 75.428,-8.371 C75.469,-8.109 75.606,-7.817 75.535,-7.59 C75.1,-6.197 74.545,-4.838 74.167,-3.432 C73.425,-0.684 72.729,2.079 72.105,4.856 C71.833,6.066 71.682,7.326 71.664,8.566 C71.647,9.67 72.555,10.28 73.315,9.742 C74.013,9.248 74.601,8.567 75.148,7.895 C76.085,6.747 75.551,5.486 75.287,4.268 C74.707,1.592 75.25,0.721 77.838,0.233 C79.07,0.001 79.597,-0.891 79.125,-1.997 C78.711,-2.966 78.22,-3.902 77.838,-4.882 C77.666,-5.324 77.456,-5.957 77.641,-6.298 C78.679,-8.214 79.826,-10.071 80.96,-11.933 C81.046,-12.074 81.326,-12.096 81.516,-12.173 C81.602,-11.721 81.7,-11.271 81.771,-10.817 C82.031,-9.153 82.282,-7.488 82.537,-5.823 C82.537,-5.662 82.536,-5.499 82.535,-5.337 C82.704,-4.148 82.872,-2.958 83.041,-1.768 C82.957,-1.602 82.874,-1.437 82.79,-1.271 C82.196,-0.849 81.603,-0.426 81.009,-0.003 C77.172,4.91 73.301,15.619 74.527,18.253 C74.934,16.892 75.301,15.638 75.684,14.388 C76.541,11.585 77.225,8.711 78.329,6.008 C79.092,4.138 80.438,2.505 81.524,0.766 C81.992,0.63 82.461,0.495 83.179,0.287 C83.389,3.44 83.595,6.54 83.801,9.641 C83.802,9.722 83.802,9.802 83.802,9.883 C83.378,10.222 82.955,10.562 82.532,10.902 C80.738,13.053 79.544,15.531 78.815,18.204 C78.366,19.848 78.195,21.568 77.9,23.253" id="Fill-30" fill="#81AC01" sketch:type="MSShapeGroup" mask="url(#mask-6)"></path>
                <path d="M61.824,2.185 C61.153,1.717 60.819,1.182 60.674,0.274 C60.554,-0.48 59.621,-1.103 58.866,-2 C59.248,-2.967 58.665,-4.011 57.658,-4.914 C57.639,-5.058 57.621,-5.202 57.602,-5.346 C57.555,-5.333 57.508,-5.319 57.461,-5.306 C57.518,-5.175 57.575,-5.044 57.633,-4.913 C57.409,-5.199 57.05,-5.461 56.991,-5.779 C56.879,-6.384 57.029,-7.04 56.908,-7.643 C56.681,-8.779 55.702,-9.053 54.819,-8.309 C53.679,-7.347 52.522,-6.405 51.372,-5.456 C51.579,-6.168 51.641,-6.971 52.018,-7.578 C53.332,-9.692 54.826,-11.696 56.101,-13.832 C56.605,-14.677 57.58,-15.527 56.918,-16.753 C56.918,-16.831 56.918,-16.908 56.919,-16.985 C58.145,-17.126 58.325,-18.051 58.445,-19.021 C59.049,-19.331 59.844,-19.489 60.224,-19.974 C62.059,-22.317 63.9,-24.67 65.513,-27.167 C67.331,-29.98 69.074,-32.867 70.537,-35.875 C71.869,-38.614 72.854,-41.534 73.834,-44.427 C74.129,-45.3 73.942,-46.356 73.871,-47.32 C73.855,-47.539 73.401,-47.726 73.149,-47.927 C73.402,-48.264 73.655,-48.601 73.908,-48.938 C74.417,-48.811 74.924,-50.83 75.433,-48.939 L75.433,-48.445 C75.602,-47.369 75.776,-46.294 75.939,-45.218 C76.349,-42.508 76.571,-39.753 77.23,-37.106 C77.597,-35.633 76.997,-34.689 76.427,-33.598 C75.344,-31.524 74.243,-29.459 73.149,-27.39 C72.727,-26.882 72.304,-26.375 71.882,-25.867 C71.027,-26.034 70.682,-25.428 70.359,-24.833 C68.484,-21.381 66.096,-18.206 65.035,-14.317 C64.67,-12.979 64.35,-11.741 64.783,-10.398 C64.783,-10.314 64.782,-10.231 64.78,-10.148 C61.778,-10.075 59.975,-8.168 58.353,-5.984 C58.94,-6.19 59.405,-6.583 59.911,-6.913 C61.42,-7.896 62.679,-9.442 64.78,-9.126 L64.78,-8.628 C63.851,-5.076 62.921,-1.524 61.991,2.028 C61.939,2.084 61.883,2.136 61.824,2.185" id="Fill-31" fill="#81AC01" sketch:type="MSShapeGroup" mask="url(#mask-6)"></path>
                <path d="M39.739,4.287 C38.868,2.099 37.997,-0.089 37.126,-2.277 C37.029,-2.437 36.931,-2.597 36.834,-2.756 L36.85,-2.743 C36.97,-4.883 35.698,-6.569 34.932,-8.401 C34.099,-10.393 34.295,-11.126 36.314,-12.013 C37.272,-12.434 38.206,-12.909 39.165,-13.33 C39.835,-13.624 40.529,-13.866 41.213,-14.131 C41.462,-13.352 41.718,-12.575 41.952,-11.792 C41.998,-11.637 41.936,-11.452 41.962,-11.288 C42.211,-9.72 42.468,-8.154 42.723,-6.588 C42.636,-5.916 42.549,-5.244 42.461,-4.571 C41.349,-2.689 40.603,-0.7 40.694,1.531 C40.694,1.611 40.693,1.69 40.692,1.769 C40.374,2.609 40.057,3.448 39.739,4.287" id="Fill-32" fill="#87B601" sketch:type="MSShapeGroup" mask="url(#mask-6)"></path>
                <path d="M95.002,22.397 C94.977,22.811 94.952,23.226 94.919,23.777 C93.294,23.373 93.024,24.643 92.534,25.664 C92.337,26.073 92.119,26.472 91.91,26.876 C91.679,26.394 91.382,25.931 91.227,25.425 C90.493,23.036 89.915,20.592 89.051,18.253 C88.467,16.674 87.745,15.055 86.086,14.196 C86.005,13.66 85.866,13.126 85.854,12.587 C85.816,10.817 85.815,9.046 85.822,7.275 C85.824,6.825 85.909,6.374 85.956,5.924 C86.429,6.202 87.088,6.364 87.342,6.777 C88.566,8.767 89.799,10.767 90.805,12.87 C92.303,15.999 93.612,19.217 95.002,22.397" id="Fill-33" fill="#81AC01" sketch:type="MSShapeGroup" mask="url(#mask-6)"></path>
                <path d="M40.692,1.769 C40.693,1.69 40.694,1.611 40.694,1.531 C40.858,1.376 41.107,1.251 41.172,1.061 C41.794,-0.723 42.383,-2.517 42.981,-4.309 C43.103,-4.476 43.248,-4.63 43.342,-4.811 C44.684,-7.397 45.999,-9.997 47.367,-12.568 C47.77,-13.324 48.32,-14.001 48.803,-14.714 C48.686,-14.057 48.482,-13.401 48.472,-12.742 C48.46,-11.913 48.605,-11.082 48.683,-10.252 C49.593,-10.458 50.513,-10.631 51.408,-10.889 C51.658,-10.96 51.82,-11.299 52.05,-11.481 C52.991,-12.227 53.942,-12.96 54.889,-13.697 C54.245,-12.586 53.538,-11.506 52.972,-10.356 C52.04,-8.468 51.2,-6.535 50.321,-4.62 C49.698,-4.403 49.075,-4.187 48.452,-3.97 C48.41,-4.076 48.368,-4.182 48.326,-4.288 C47.335,-2.919 46.342,-1.549 45.254,-0.045 C44.924,-0.648 44.716,-1.029 44.436,-1.54 C43.24,-0.078 41.732,1.001 41.451,2.952 C41.408,3.253 41.117,3.518 40.941,3.8 C40.858,3.123 40.775,2.446 40.692,1.769" id="Fill-34" fill="#82AD02" sketch:type="MSShapeGroup" mask="url(#mask-6)"></path>
                <path d="M95.002,22.397 C93.612,19.217 92.303,15.999 90.805,12.87 C89.799,10.767 88.566,8.767 87.342,6.777 C87.088,6.364 86.429,6.202 85.956,5.924 C85.909,6.374 85.824,6.825 85.822,7.275 C85.815,9.046 85.816,10.817 85.854,12.587 C85.866,13.126 86.005,13.66 86.086,14.197 L85.579,14.2 C85.534,13.907 85.489,13.614 85.443,13.322 C85.061,15.017 84.958,16.702 84.809,18.382 C84.741,19.148 84.388,19.939 84.51,20.661 C84.733,21.98 85.213,23.256 85.589,24.562 C85.647,24.307 85.794,23.971 85.786,23.637 C85.733,21.267 85.64,18.898 85.586,16.527 C85.581,16.26 85.741,15.989 85.824,15.72 C85.91,15.721 85.997,15.721 86.084,15.721 C86.083,16.458 86.07,17.196 86.084,17.934 C86.163,22.184 86.249,26.433 86.333,30.683 C85.995,30.683 85.658,30.682 85.32,30.682 C85.151,28.738 85.036,26.787 84.795,24.853 C84.646,23.655 84.307,22.481 84.053,21.297 C83.968,20.958 83.883,20.619 83.798,20.279 C84.02,19.239 84.378,18.206 84.434,17.157 C84.537,15.204 84.463,13.241 84.463,11.185 C84.014,11.273 83.657,11.343 83.301,11.413 C83.044,11.243 82.788,11.072 82.532,10.902 C82.955,10.562 83.378,10.222 83.802,9.883 C83.998,10.117 84.194,10.352 84.39,10.586 C84.693,10.31 85.245,10.042 85.255,9.756 C85.293,8.692 85.14,7.622 85.084,6.552 C85.067,6.223 85.008,5.692 85.175,5.589 C86.272,4.912 85.675,4.349 85.185,3.678 C84.953,3.359 84.889,2.896 84.814,2.487 C84.382,0.156 84.067,-2.201 83.512,-4.501 C83.231,-5.664 83.408,-6.3 84.562,-6.603 C84.815,-6.516 85.069,-6.429 85.322,-6.342 C85.321,-6.086 85.32,-5.831 85.319,-5.576 C84.949,-5.556 84.58,-5.536 84.075,-5.509 C84.184,-4.333 84.235,-3.236 84.398,-2.154 C84.603,-0.793 84.794,0.587 85.191,1.898 C85.459,2.78 85.911,3.724 86.56,4.352 C89.913,7.602 91.828,11.636 93.235,15.989 C93.762,17.621 94.397,19.218 95.013,20.82 C95.092,21.027 95.355,21.165 95.532,21.335 C95.356,21.689 95.179,22.043 95.002,22.397 L95.002,22.397 Z M85.385,12.584 C85.415,12.514 85.483,12.43 85.463,12.378 C85.444,12.329 85.335,12.314 85.266,12.283 C85.236,12.353 85.168,12.438 85.188,12.488 C85.207,12.539 85.315,12.554 85.385,12.584 L85.385,12.584 Z" id="Fill-35" fill="#87AD16" sketch:type="MSShapeGroup" mask="url(#mask-6)"></path>
            </g>
            <path d="M86.333,30.683 C86.249,26.433 86.163,22.184 86.084,17.934 C86.07,17.196 86.083,16.458 86.084,15.721 C86.263,15.744 86.548,15.703 86.606,15.798 C87.142,16.692 87.761,17.562 88.124,18.527 C89.096,21.107 89.937,23.735 90.875,26.329 C91.019,26.728 91.398,27.043 91.669,27.398 C91.494,27.443 91.26,27.585 91.151,27.519 C90.525,27.142 89.994,27.225 89.699,27.878 C89.021,29.385 88.281,30.881 87.8,32.453 C87.268,34.192 86.997,36.011 86.612,37.795 C86.52,37.493 86.352,37.191 86.348,36.888 C86.324,34.82 86.334,32.751 86.333,30.683" id="Fill-37" fill="#82AC03" sketch:type="MSShapeGroup"></path>
            <path d="M83.301,11.413 C83.657,11.343 84.014,11.273 84.463,11.185 C84.463,13.241 84.537,15.204 84.434,17.157 C84.378,18.206 84.02,19.239 83.798,20.279 C83.067,20.983 82.207,21.598 81.638,22.415 C80.96,23.39 80.531,24.538 79.995,25.611 C79.474,25.134 78.952,24.657 78.431,24.18 C79.47,19.701 80.357,15.165 83.301,11.413" id="Fill-38" fill="#81AC01" sketch:type="MSShapeGroup"></path>
            <path d="M84.053,21.297 C84.307,22.481 84.646,23.655 84.795,24.853 C85.036,26.787 85.151,28.738 85.32,30.682 C85.436,32.343 85.591,34.003 85.656,35.666 C85.704,36.872 85.633,38.083 85.615,39.292 C84.631,36.133 83.685,32.962 82.627,29.829 C82.436,29.263 81.699,28.903 81.37,28.355 C80.974,27.697 80.744,26.939 80.442,26.224 C80.898,25.482 81.411,24.77 81.795,23.994 C82.336,22.902 82.858,21.827 84.053,21.297" id="Fill-39" fill="#82AD02" sketch:type="MSShapeGroup"></path>
            <path d="M83.301,11.413 C80.357,15.165 79.47,19.701 78.431,24.18 C78.254,23.871 78.077,23.562 77.9,23.253 C78.195,21.568 78.366,19.848 78.815,18.204 C79.544,15.531 80.738,13.053 82.532,10.902 C82.788,11.072 83.044,11.243 83.301,11.413" id="Fill-40" fill="#8BB21C" sketch:type="MSShapeGroup"></path>
            <path d="M91.669,27.398 C91.398,27.043 91.019,26.728 90.875,26.329 C89.937,23.735 89.096,21.107 88.124,18.527 C87.761,17.562 87.142,16.692 86.606,15.798 C86.548,15.703 86.263,15.744 86.084,15.721 C85.997,15.721 85.91,15.721 85.824,15.72 C85.742,15.213 85.661,14.707 85.579,14.2 L86.086,14.197 C87.745,15.055 88.467,16.674 89.051,18.253 C89.915,20.592 90.493,23.036 91.227,25.425 C91.382,25.931 91.679,26.394 91.91,26.876 C91.83,27.05 91.75,27.224 91.669,27.398" id="Fill-41" fill="#8BB21C" sketch:type="MSShapeGroup"></path>
            <path d="M85.615,39.292 C85.633,38.083 85.704,36.872 85.656,35.666 C85.591,34.003 85.436,32.343 85.32,30.682 C85.658,30.682 85.995,30.683 86.333,30.683 C86.334,32.751 86.324,34.82 86.348,36.888 C86.352,37.191 86.52,37.493 86.612,37.795 C86.483,38.628 86.355,39.46 86.226,40.292 C86.109,40.292 85.992,40.292 85.874,40.291 C85.788,39.957 85.701,39.625 85.615,39.292" id="Fill-42" fill="#8BB21C" sketch:type="MSShapeGroup"></path>
            <path d="M84.053,21.297 C82.858,21.827 82.336,22.902 81.795,23.994 C81.411,24.77 80.898,25.482 80.442,26.224 C80.293,26.02 80.144,25.815 79.995,25.611 C80.531,24.538 80.96,23.39 81.638,22.415 C82.207,21.598 83.067,20.983 83.798,20.279 C83.883,20.619 83.968,20.958 84.053,21.297" id="Fill-43" fill="#8BB21C" sketch:type="MSShapeGroup"></path>
            <g id="Group-57">
                <mask id="mask-8" sketch:name="Clip 45" fill="white">
                    <use xlink:href="#path-7"></use>
                </mask>
                <g id="Clip-45"></g>
                <path d="M40.692,1.769 C40.775,2.446 40.858,3.123 40.941,3.8 C40.694,4.199 40.448,4.599 40.115,5.138 C39.944,4.751 39.842,4.519 39.739,4.287 C40.057,3.448 40.374,2.609 40.692,1.769" id="Fill-44" fill="#8CB419" sketch:type="MSShapeGroup" mask="url(#mask-8)"></path>
                <path d="M85.322,-6.342 C85.069,-6.429 84.815,-6.516 84.562,-6.603 C84.561,-6.681 84.561,-6.758 84.561,-6.836 C84.181,-7.602 83.647,-8.331 83.456,-9.141 C83.122,-10.556 82.961,-12.017 82.799,-13.466 C82.659,-14.721 82.619,-15.986 82.535,-17.247 C82.702,-17.248 82.869,-17.248 83.036,-17.248 C84.22,-16.487 85.405,-15.725 86.589,-14.963 C86.052,-14.794 85.523,-14.582 84.974,-14.464 C84.148,-14.287 83.313,-14.165 83.658,-12.98 C84.353,-10.592 85.572,-8.499 87.335,-6.754 C89.389,-4.72 91.558,-2.797 93.568,-0.722 C95.178,0.94 96.356,2.904 97.313,5.046 C98.198,7.027 99.401,8.874 100.55,10.726 C100.779,11.095 101.395,11.225 101.833,11.464 C101.904,11.359 101.976,11.254 102.047,11.148 C100.927,8.31 99.867,5.445 98.669,2.641 C97.562,0.052 96.277,-2.46 95.13,-5.033 C94.728,-5.936 94.503,-6.919 94.198,-7.865 C95.043,-6.852 95.889,-5.838 96.734,-4.825 C97.03,-3.707 97.208,-2.542 97.642,-1.48 C99.153,2.213 100.752,5.871 102.322,9.54 C102.554,10.081 102.877,10.59 103.047,11.148 C103.169,11.549 103.106,12.005 103.126,12.437 C102.66,12.421 102.106,12.56 101.747,12.355 C101.067,11.968 100.519,11.355 99.876,10.893 C99.455,10.591 98.963,10.389 98.503,10.143 C97.536,8.384 96.706,6.53 95.569,4.889 C93.756,2.271 91.86,-0.312 89.763,-2.701 C88.517,-4.121 86.817,-5.142 85.322,-6.342" id="Fill-46" fill="#82AE00" sketch:type="MSShapeGroup" mask="url(#mask-8)"></path>
                <path d="M85.322,-6.342 C86.817,-5.142 88.517,-4.121 89.763,-2.701 C91.86,-0.312 93.756,2.271 95.569,4.889 C96.706,6.53 97.536,8.384 98.503,10.143 C99.526,12.596 100.55,15.05 101.573,17.503 C101.466,17.572 101.359,17.64 101.252,17.709 C100.993,17.339 100.69,16.993 100.481,16.597 C98.622,13.075 96.843,9.509 94.914,6.025 C92.447,1.569 89.651,-2.648 85.319,-5.576 C85.32,-5.831 85.321,-6.086 85.322,-6.342" id="Fill-47" fill="#8BB21B" sketch:type="MSShapeGroup" mask="url(#mask-8)"></path>
                <path d="M96.734,-4.825 C95.889,-5.838 95.043,-6.852 94.198,-7.865 C93.464,-8.724 92.767,-9.615 91.989,-10.431 C91.158,-11.303 90.251,-12.102 89.378,-12.933 C89.549,-13.105 89.72,-13.278 89.891,-13.451 C91.783,-12.102 93.399,-10.517 94.713,-8.564 C95.686,-7.117 97.064,-5.947 98.092,-4.53 C99.818,-2.153 101.431,0.307 103.051,2.758 C104.942,5.619 106.79,8.508 108.483,11.567 C108.306,11.465 108.062,11.406 107.961,11.253 C106.499,9.053 105.079,6.824 103.604,4.633 C101.68,1.774 99.725,-1.065 97.756,-3.893 C97.499,-4.262 97.079,-4.517 96.734,-4.825" id="Fill-48" fill="#8CB419" sketch:type="MSShapeGroup" mask="url(#mask-8)"></path>
                <path d="M110.932,-3.552 C110.622,-4.081 110.311,-4.61 110.001,-5.139 C110.054,-5.192 110.106,-5.245 110.16,-5.298 C110.586,-4.969 111.013,-4.639 111.44,-4.31 C111.809,-3.815 112.168,-3.313 112.548,-2.828 C113.353,-1.8 114.169,-0.78 114.98,0.242 C114.866,0.343 114.752,0.444 114.637,0.544 C113.402,-0.821 112.167,-2.186 110.932,-3.552" id="Fill-49" fill="#8CB419" sketch:type="MSShapeGroup" mask="url(#mask-8)"></path>
                <path d="M81.516,-12.173 C81.326,-12.096 81.046,-12.074 80.96,-11.933 C79.826,-10.071 78.679,-8.214 77.641,-6.298 C77.456,-5.957 77.666,-5.324 77.838,-4.882 C78.22,-3.902 78.711,-2.966 79.125,-1.997 C79.597,-0.891 79.07,0.001 77.838,0.233 C75.25,0.721 74.707,1.592 75.287,4.268 C75.551,5.486 76.085,6.747 75.148,7.895 C74.601,8.567 74.013,9.248 73.315,9.742 C72.555,10.28 71.647,9.67 71.664,8.566 C71.682,7.326 71.833,6.066 72.105,4.856 C72.729,2.079 73.425,-0.684 74.167,-3.432 C74.545,-4.838 75.1,-6.197 75.535,-7.59 C75.606,-7.817 75.469,-8.109 75.428,-8.371 C76.697,-10.315 77.966,-12.26 79.235,-14.204 C79.553,-14.395 79.885,-14.568 80.186,-14.782 C81.017,-15.371 81.413,-15.209 81.503,-14.165 C81.56,-13.506 81.515,-12.837 81.516,-12.173" id="Fill-50" fill="#86B500" sketch:type="MSShapeGroup" mask="url(#mask-8)"></path>
                <path d="M79.235,-14.204 C77.966,-12.26 76.697,-10.315 75.428,-8.371 C74.421,-5.631 73.285,-2.931 72.44,-0.142 C71.356,3.438 70.506,7.089 69.311,10.717 C69.417,9.53 69.412,8.32 69.652,7.16 C70.247,4.291 70.77,1.387 71.656,-1.396 C73.183,-6.192 75.068,-10.855 78.473,-14.711 C78.727,-14.542 78.981,-14.373 79.235,-14.204" id="Fill-51" fill="#8BB21C" sketch:type="MSShapeGroup" mask="url(#mask-8)"></path>
                <path d="M82.537,-5.823 C82.611,-6.22 82.787,-6.627 82.743,-7.01 C82.544,-8.741 82.28,-10.463 82.053,-12.191 C82.039,-12.298 82.13,-12.418 82.452,-12.571 C82.64,-11.308 82.949,-10.048 82.98,-8.781 C83.008,-7.617 83.605,-7.135 84.561,-6.836 C84.561,-6.758 84.561,-6.681 84.562,-6.603 C83.408,-6.3 83.231,-5.664 83.512,-4.501 C84.067,-2.201 84.382,0.156 84.814,2.487 C84.889,2.896 84.953,3.359 85.185,3.678 C85.675,4.349 86.272,4.912 85.175,5.589 C85.008,5.692 85.067,6.223 85.084,6.552 C85.14,7.622 85.293,8.692 85.255,9.756 C85.245,10.042 84.693,10.31 84.39,10.586 C84.194,10.352 83.998,10.117 83.802,9.883 C83.802,9.802 83.802,9.722 83.801,9.641 C83.965,9.036 84.29,8.424 84.265,7.827 C84.171,5.571 83.932,3.321 83.816,1.066 C83.766,0.083 83.88,-0.906 82.193,-0.314 C82.488,-0.786 82.639,-1.029 82.79,-1.271 C82.874,-1.437 82.957,-1.602 83.041,-1.768 C83.644,-3.067 82.888,-4.174 82.535,-5.337 C82.536,-5.499 82.537,-5.662 82.537,-5.823" id="Fill-52" fill="#789E04" sketch:type="MSShapeGroup" mask="url(#mask-8)"></path>
                <path d="M81.524,0.766 C80.438,2.505 79.092,4.138 78.329,6.008 C77.225,8.711 76.541,11.585 75.684,14.388 C75.301,15.638 74.934,16.892 74.527,18.253 C73.301,15.619 77.172,4.91 81.009,-0.003 C81.181,0.253 81.352,0.509 81.524,0.766" id="Fill-53" fill="#8BB21C" sketch:type="MSShapeGroup" mask="url(#mask-8)"></path>
                <path d="M64.78,-8.628 C65.118,-8.373 65.456,-8.117 65.794,-7.862 C64.778,-4.72 63.772,-1.574 62.721,1.557 C62.649,1.771 62.242,1.873 61.991,2.028 C62.921,-1.524 63.851,-5.076 64.78,-8.628" id="Fill-54" fill="#8BB21B" sketch:type="MSShapeGroup" mask="url(#mask-8)"></path>
                <path d="M81.524,0.766 C81.352,0.509 81.181,0.253 81.009,-0.003 C81.603,-0.426 82.196,-0.849 82.79,-1.271 C82.639,-1.029 82.488,-0.786 82.193,-0.314 C83.88,-0.906 83.766,0.083 83.816,1.066 C83.932,3.321 84.171,5.571 84.265,7.827 C84.29,8.424 83.965,9.036 83.801,9.641 C83.595,6.54 83.389,3.44 83.179,0.287 C82.461,0.495 81.992,0.63 81.524,0.766" id="Fill-55" fill="#87AD16" sketch:type="MSShapeGroup" mask="url(#mask-8)"></path>
                <path d="M42.461,-4.571 C42.635,-4.484 42.808,-4.396 42.981,-4.309 C42.383,-2.517 41.794,-0.723 41.172,1.061 C41.107,1.251 40.858,1.376 40.694,1.531 C40.603,-0.7 41.349,-2.689 42.461,-4.571" id="Fill-56" fill="#8CB419" sketch:type="MSShapeGroup" mask="url(#mask-8)"></path>
            </g>
            <path d="M85.579,14.2 C85.661,14.707 85.742,15.213 85.824,15.72 C85.741,15.989 85.581,16.26 85.586,16.527 C85.64,18.898 85.733,21.267 85.786,23.637 C85.794,23.971 85.647,24.307 85.589,24.562 C85.213,23.256 84.733,21.98 84.51,20.661 C84.388,19.939 84.741,19.148 84.809,18.382 C84.958,16.702 85.061,15.017 85.443,13.322 C85.489,13.614 85.534,13.907 85.579,14.2" id="Fill-58" fill="#789E04" sketch:type="MSShapeGroup"></path>
            <g id="Group-62">
                <mask id="mask-10" sketch:name="Clip 60" fill="white">
                    <use xlink:href="#path-9"></use>
                </mask>
                <g id="Clip-60"></g>
                <path d="M85.385,12.585 C85.315,12.554 85.207,12.539 85.188,12.488 C85.168,12.438 85.236,12.353 85.266,12.283 C85.335,12.314 85.444,12.329 85.463,12.378 C85.483,12.43 85.415,12.514 85.385,12.585" id="Fill-59" fill="#789E04" sketch:type="MSShapeGroup" mask="url(#mask-10)"></path>
                <path d="M86.589,-14.963 C87.519,-14.287 88.448,-13.61 89.378,-12.933 C90.251,-12.102 91.158,-11.303 91.989,-10.431 C92.767,-9.615 93.464,-8.724 94.198,-7.865 C94.503,-6.919 94.728,-5.936 95.13,-5.033 C96.277,-2.46 97.562,0.052 98.669,2.641 C99.867,5.445 100.927,8.31 102.047,11.148 C101.976,11.254 101.904,11.359 101.833,11.464 C101.395,11.225 100.779,11.095 100.55,10.726 C99.401,8.874 98.198,7.027 97.313,5.046 C96.356,2.904 95.178,0.94 93.568,-0.722 C91.558,-2.797 89.389,-4.72 87.335,-6.754 C85.572,-8.499 84.353,-10.592 83.658,-12.98 C83.313,-14.165 84.148,-14.287 84.974,-14.464 C85.523,-14.582 86.052,-14.794 86.589,-14.963" id="Fill-61" fill="#87B600" sketch:type="MSShapeGroup" mask="url(#mask-10)"></path>
            </g>
            <g id="Group-104" transform="translate(114.000000, 0.000000)">
                <mask id="mask-12" sketch:name="Clip 64" fill="white">
                    <use xlink:href="#path-11"></use>
                </mask>
                <g id="Clip-64"></g>
                <path d="M5.167,15.22 C4.924,14.887 4.473,14.554 4.473,14.222 C4.473,12.66 4.373,11.046 4.724,9.548 C5.395,6.688 4.059,4.628 2.423,2.521 C1.822,2.682 1.209,2.846 0.068,3.15 C0.178,1.101 0.127,-0.731 0.41,-2.511 C0.767,-4.748 0.885,-4.729 -1.013,-5.892 C1.448,-10.962 3.972,-16.01 6.31,-21.143 C6.661,-21.914 6.481,-23.429 5.928,-23.977 C5.286,-24.614 3.781,-25.036 2.97,-24.723 C0.722,-23.855 -1.36,-22.557 -3.508,-21.429 C-3.449,-22.259 -3.619,-23.193 -3.294,-23.9 C-1.107,-28.668 1.341,-33.321 3.408,-38.138 C6.848,-46.152 10.086,-54.253 13.342,-62.345 C13.63,-63.061 13.431,-63.973 13.458,-64.794 C15.884,-67.977 18.309,-71.16 20.734,-74.343 C20.789,-74.29 20.884,-74.243 20.891,-74.185 C21.87,-66.477 23.734,-59.092 28.572,-52.758 C28.689,-52.606 28.214,-52.001 28.015,-51.608 C27.633,-51.295 27.107,-51.059 26.893,-50.657 C25.71,-48.44 24.518,-46.22 23.487,-43.931 C21.745,-40.065 19.964,-36.204 18.494,-32.233 C17.21,-28.768 16.332,-25.152 15.274,-21.604 C14.223,-18.605 13.184,-15.604 12.11,-12.614 C11.87,-11.945 11.503,-11.32 11.195,-10.675 C10.891,-11.184 10.26,-11.749 10.336,-12.19 C10.72,-14.389 11.314,-16.55 11.778,-18.736 C11.894,-19.276 12.032,-20.102 11.754,-20.361 C11.424,-20.668 10.585,-20.693 10.089,-20.51 C7.816,-19.666 6.563,-17.819 6.281,-15.552 C5.67,-10.642 4.995,-5.705 4.956,-0.774 C4.939,1.528 6.339,3.842 7.097,6.15 C6.454,9.174 5.81,12.197 5.167,15.22" id="Fill-63" fill="#81AC01" sketch:type="MSShapeGroup" mask="url(#mask-12)"></path>
                <path d="M20.728,28.469 C18.503,25.546 16.842,22.406 17.053,18.546 C15.529,19.545 14.114,20.472 12.562,21.488 C11.501,19.072 10.61,17.045 9.681,14.93 C8.82,15.016 7.959,15.102 7.098,15.189 C7.295,14.196 7.585,13.212 7.664,12.21 C7.739,11.258 7.594,10.289 7.545,9.327 C7.696,9.023 7.847,8.72 7.998,8.417 C10.059,8.37 11.745,7.455 12.529,5.617 C13.479,3.392 14.592,1.002 14.601,-1.321 C14.61,-3.528 13.287,-5.741 12.549,-7.951 C12.553,-8.254 12.557,-8.556 12.562,-8.858 C13.687,-9.487 15.486,-13.944 15,-14.988 C14.934,-15.13 14.599,-15.148 14.389,-15.224 C14.689,-15.982 14.99,-16.74 15.29,-17.499 C16.75,-17.802 17.02,-18.572 16.184,-19.776 C16.192,-20.228 16.2,-20.68 16.208,-21.131 C16.355,-21.285 16.503,-21.438 16.65,-21.591 C18.111,-21.89 18.383,-22.661 17.551,-23.867 C17.704,-24.321 17.857,-24.774 18.01,-25.229 C18.162,-25.683 18.314,-26.138 18.465,-26.593 C18.617,-27.047 18.77,-27.502 18.921,-27.956 C21.426,-29.195 21.057,-31.756 21.645,-33.876 C21.647,-34.177 21.648,-34.477 21.649,-34.778 C23.363,-35.651 23.98,-37.011 23.464,-38.872 C23.617,-39.174 23.77,-39.477 23.922,-39.779 C24.307,-39.974 24.875,-40.068 25.045,-40.38 C26.115,-42.342 27.12,-44.341 28.084,-46.359 C28.229,-46.662 28.044,-47.124 28.012,-47.511 C28.014,-48.267 28.017,-49.023 28.019,-49.779 C28.169,-49.929 28.319,-50.079 28.469,-50.229 C28.77,-50.232 29.071,-50.236 29.373,-50.24 C29.969,-49.049 30.681,-47.9 31.138,-46.658 C32.433,-43.143 33.586,-39.576 34.872,-36.058 C35.406,-34.598 36.134,-33.21 36.773,-31.789 C36.975,-31.855 37.177,-31.923 37.378,-31.989 C37.137,-31.707 36.895,-31.425 36.653,-31.143 C36.013,-30.482 35.198,-29.919 34.764,-29.144 C33.205,-26.361 31.775,-23.506 30.296,-20.679 C30.046,-19.737 29.813,-18.79 29.544,-17.854 C28.431,-13.963 27.101,-10.121 26.234,-6.176 C24.883,-0.032 23.706,6.16 22.715,12.373 C21.864,17.708 21.376,23.101 20.728,28.469" id="Fill-65" fill="#81AB00" sketch:type="MSShapeGroup" mask="url(#mask-12)"></path>
                <path d="M79.336,-16.589 C79.389,-15.516 79.207,-14.73 77.844,-14.605 C76.465,-14.479 76.146,-13.494 76.166,-12.179 C76.199,-10.043 76.522,-7.887 75.021,-5.909 C74.491,-5.212 74.712,-3.793 74.883,-2.75 C75.237,-0.601 76.104,1.533 74.205,3.448 C73.943,3.711 73.988,4.298 73.931,4.74 C73.566,7.499 73.215,10.26 72.858,13.019 C72.31,12.546 71.761,12.075 71.212,11.603 L71.214,11.605 C70.656,10.381 70.32,8.979 69.503,7.963 C64.411,1.64 58.83,-4.143 51.208,-7.486 C48.468,-7.796 47.798,-10.167 46.653,-12.064 C46.654,-12.352 46.656,-12.64 46.657,-12.928 C46.354,-13.395 46.049,-13.862 45.746,-14.329 C45.745,-14.47 45.745,-14.612 45.745,-14.754 L45.745,-15.225 L45.749,-15.22 C45.445,-15.529 45.142,-15.837 44.838,-16.146 C44.838,-16.439 44.837,-16.73 44.837,-17.023 C45.201,-18.442 44.919,-19.587 43.474,-20.241 C43.474,-20.838 43.475,-21.435 43.475,-22.032 C43.324,-22.642 43.174,-23.252 43.024,-23.863 C44.55,-23.101 46.037,-22.244 47.609,-21.594 C51.614,-19.936 53.934,-17.319 53.028,-12.699 C53,-12.553 53.023,-12.397 53.024,-12.246 C53.057,-9.722 53.978,-8.947 56.372,-9.432 C59.832,-10.134 61.405,-9.003 62.165,-5.623 C62.852,-2.564 63.702,0.55 67.636,0.906 C68.359,0.971 69.488,0.811 69.78,0.347 C70.168,-0.27 70.169,-1.385 69.886,-2.111 C69.398,-3.359 68.712,-4.597 67.849,-5.62 C64.064,-10.109 60.164,-14.501 56.359,-18.975 C55.717,-19.731 55.342,-20.714 54.844,-21.593 C59.402,-16.718 63.964,-11.845 68.52,-6.967 C70.333,-5.026 72.134,-3.074 73.94,-1.127 C74.045,-0.723 74.149,-0.318 74.254,0.086 C74.377,0.023 74.501,-0.04 74.624,-0.104 C74.397,-0.445 74.17,-0.787 73.942,-1.129 C72.542,-3.317 71.242,-5.579 69.722,-7.681 C65.481,-13.542 60.973,-19.206 54.999,-23.416 C51.911,-25.593 48.538,-27.367 45.294,-29.323 C43.475,-30.387 41.656,-31.45 39.837,-32.514 C39.837,-32.808 39.838,-33.102 39.838,-33.396 C39.838,-33.56 39.837,-33.724 39.836,-33.887 C39.834,-34.027 39.833,-34.168 39.833,-34.308 L39.833,-34.778 L39.837,-34.773 C39.533,-35.539 39.228,-36.305 38.924,-37.071 C38.925,-37.362 38.926,-37.652 38.927,-37.943 C38.624,-38.556 38.32,-39.169 38.016,-39.781 L38.02,-39.777 C37.871,-39.928 37.721,-40.079 37.571,-40.231 C37.568,-40.529 37.565,-40.828 37.563,-41.126 C37.614,-41.799 37.766,-42.482 37.691,-43.141 C37.578,-44.151 37.309,-45.145 37.106,-46.145 C38.016,-45.691 38.927,-45.236 39.837,-44.781 L40.291,-44.781 C41.049,-44.175 41.808,-43.569 42.566,-42.964 C43.323,-42.811 44.08,-42.659 44.837,-42.507 C45.899,-41.901 46.961,-41.295 48.023,-40.689 L48.476,-40.689 C48.779,-40.386 49.083,-40.083 49.387,-39.781 C49.538,-39.78 49.69,-39.78 49.841,-39.779 C50.902,-39.173 51.963,-38.567 53.024,-37.961 L53.933,-37.505 C54.237,-37.203 54.54,-36.899 54.843,-36.596 C54.994,-36.596 55.146,-36.595 55.296,-36.596 C55.903,-35.989 56.51,-35.383 57.117,-34.778 C58.178,-34.02 59.239,-33.262 60.3,-32.504 C61.621,-31.615 62.97,-29.981 64.254,-30.031 C65.746,-30.088 66.577,-29.565 67.569,-28.866 C68.624,-27.534 69.6,-26.129 70.751,-24.887 C72.664,-22.823 74.691,-20.864 76.67,-18.86 L76.668,-18.862 C76.972,-18.559 77.276,-18.254 77.58,-17.951 L77.577,-17.954 C77.882,-17.642 78.186,-17.331 78.49,-17.02 C78.773,-16.876 79.054,-16.732 79.336,-16.589" id="Fill-66" fill="#81AC01" sketch:type="MSShapeGroup" mask="url(#mask-12)"></path>
                <path d="M45.676,31.347 C44.593,31.006 43.971,28.924 42.338,30.451 C42.281,30.504 41.62,29.674 41.192,29.615 C40.041,29.457 38.575,29.025 37.745,29.535 C33.735,31.995 32.951,31.865 30.946,27.53 C30.105,28.408 29.297,29.25 28.307,30.282 C27.77,29.793 27.157,29.307 26.634,28.738 C26.144,28.205 25.75,27.584 25.408,27.128 C23.904,27.853 22.56,28.501 21.216,29.149 C21.359,28.19 21.501,27.23 21.647,26.271 C22.519,20.52 23.369,14.765 24.272,9.019 C24.876,5.176 25.556,1.345 26.202,-2.492 C26.654,-2.052 27.478,-1.631 27.502,-1.168 C27.885,6.137 28.167,13.447 28.467,20.757 C28.492,21.362 28.401,21.982 28.505,22.571 C28.744,23.918 29.546,24.302 30.543,23.326 C31.334,22.551 31.826,21.481 32.542,20.618 C33.075,19.976 33.754,19.455 34.369,18.88 L34.369,29.949 C34.599,29.953 34.83,29.956 35.06,29.959 C35.287,28.146 35.614,26.337 35.724,24.516 C36.076,18.66 36.098,12.771 36.718,6.945 C37.441,0.143 38.158,-6.76 42.568,-12.496 C43.325,-12.796 44.082,-13.096 44.838,-13.396 C44.839,-13.103 44.84,-12.81 44.842,-12.516 C44.843,-12.2 44.844,-11.884 44.845,-11.568 C44.845,-11.429 44.845,-11.289 44.844,-11.15 L44.844,-10.677 L44.84,-10.682 C45.145,-9.916 45.449,-9.15 45.753,-8.384 C45.904,-7.485 46.054,-6.586 46.205,-5.687 C46.586,-4.158 47.03,-2.642 47.323,-1.096 C47.471,-0.316 47.592,0.619 47.302,1.306 C45.74,5.012 44.682,8.811 44.844,12.862 C45.091,19.025 45.396,25.185 45.676,31.347" id="Fill-67" fill="#81AC01" sketch:type="MSShapeGroup" mask="url(#mask-12)"></path>
                <path d="M72.191,14.994 C72.031,15.774 71.567,16.645 71.769,17.315 C72.319,19.147 71.913,20.656 70.799,22.084 C69.482,20.386 68.148,18.7 66.855,16.984 C64.064,13.28 60.846,10.147 56.208,8.871 C55.752,8.721 55.296,8.57 54.84,8.42 L54.844,8.424 C54.539,8.12 54.234,7.816 53.929,7.512 L53.933,7.516 C53.478,6.751 53.022,5.987 52.566,5.223 C52.566,5.082 52.568,4.941 52.57,4.801 C52.115,4.034 51.661,3.267 51.206,2.5 L51.206,1.624 C51.053,1.161 50.9,0.698 50.747,0.234 L50.751,0.24 C50.26,-1.742 49.769,-3.724 49.252,-5.814 C50.156,-5.752 50.681,-5.716 51.207,-5.68 C53.466,-4.405 56.081,-3.507 57.912,-1.778 C61.747,1.842 65.148,5.919 68.779,9.761 C69.469,10.491 70.397,10.996 71.214,11.605 L71.212,11.603 C71.364,12.062 71.516,12.52 71.668,12.979 C71.843,13.65 72.018,14.322 72.191,14.994" id="Fill-68" fill="#81AC01" sketch:type="MSShapeGroup" mask="url(#mask-12)"></path>
                <path d="M53.847,36.396 C53.001,35.815 52.201,35.143 51.295,34.678 C50.398,34.218 49.591,32.846 48.298,34.114 C48.255,34.156 47.486,33.456 47.055,33.101 C46.924,31.761 46.689,30.421 46.68,29.079 C46.639,22.743 46.543,16.403 46.725,10.072 C46.785,7.964 47.615,5.877 48.092,3.781 C48.353,3.809 48.613,3.837 48.873,3.866 C49.198,4.328 49.523,4.79 49.849,5.251 C49.993,5.548 50.137,5.845 50.281,6.142 C50.741,6.753 51.2,7.364 51.659,7.975 L51.659,9.773 C52.416,11.596 53.173,13.419 53.929,15.242 C53.326,16.746 52.271,18.233 52.215,19.757 C52.109,22.642 52.523,25.553 52.82,28.442 C53.094,31.101 53.5,33.745 53.847,36.396" id="Fill-69" fill="#81AC01" sketch:type="MSShapeGroup" mask="url(#mask-12)"></path>
                <path d="M67.585,47.523 C65.105,44.481 62.682,41.391 60.123,38.417 C58.738,36.808 57.045,35.711 54.829,37.101 C54.771,35.308 54.79,33.508 54.637,31.723 C54.302,27.793 53.796,23.875 53.566,19.94 C53.52,19.159 54.394,18.323 54.844,17.513 C55.346,18.672 55.835,19.838 56.353,20.99 C59.841,28.742 63.357,36.481 66.801,44.252 C67.248,45.261 67.332,46.429 67.585,47.523" id="Fill-70" fill="#82AD02" sketch:type="MSShapeGroup" mask="url(#mask-12)"></path>
                <path d="M70.735,23.429 C70.259,24.768 69.782,26.107 69.305,27.444 C68.572,26.704 67.918,25.862 67.093,25.25 C65.075,23.75 63.204,21.791 60.28,22.521 C59.983,22.376 59.686,22.232 59.39,22.087 C58.631,20.715 57.873,19.342 57.114,17.969 L57.118,17.973 C56.964,17.511 56.811,17.048 56.657,16.586 C56.657,16.446 56.659,16.307 56.662,16.167 C56.509,16.01 56.356,15.853 56.204,15.696 L56.206,15.701 C55.554,13.968 54.901,12.236 54.191,10.348 C54.915,10.308 55.562,10.271 56.209,10.235 C60.354,11.946 63.343,15.019 66.089,18.441 C67.508,20.208 69.179,21.773 70.735,23.429" id="Fill-71" fill="#81AC01" sketch:type="MSShapeGroup" mask="url(#mask-12)"></path>
                <path d="M69.284,27.626 C69.039,29.642 68.577,31.66 68.601,33.672 C68.634,36.433 69.015,39.191 69.286,41.947 C69.455,43.661 69.698,45.368 69.908,47.079 C69.46,46.639 68.799,46.279 68.595,45.745 C66.196,39.453 63.849,33.141 61.541,26.815 C61.232,25.968 61.218,25.015 61.068,24.11 C62.083,24.404 63.177,24.547 64.094,25.027 C65.355,25.686 66.45,26.653 67.683,27.375 C68.116,27.63 68.745,27.552 69.284,27.626" id="Fill-72" fill="#82AD02" sketch:type="MSShapeGroup" mask="url(#mask-12)"></path>
                <path d="M69.284,27.626 C68.745,27.552 68.116,27.63 67.683,27.375 C66.45,26.653 65.355,25.686 64.094,25.027 C63.177,24.547 62.083,24.404 61.068,24.11 C61.218,25.015 61.232,25.968 61.541,26.815 C63.849,33.141 66.196,39.453 68.595,45.745 C68.799,46.279 69.46,46.639 69.908,47.079 C70.298,48.552 70.688,50.025 71.077,51.499 C70.949,51.57 70.822,51.642 70.694,51.712 C69.657,50.316 68.621,48.92 67.585,47.523 C67.332,46.429 67.248,45.261 66.801,44.252 C63.357,36.481 59.841,28.742 56.353,20.99 C55.835,19.838 55.346,18.672 54.844,17.513 C54.843,17.363 54.842,17.213 54.842,17.063 C55.438,17.85 56.176,18.567 56.601,19.438 C57.814,21.927 58.899,24.478 60.28,27.549 L60.28,22.521 C63.204,21.791 65.075,23.75 67.093,25.25 C67.918,25.862 68.572,26.704 69.305,27.444 C69.305,27.446 69.284,27.626 69.284,27.626" id="Fill-73" fill="#88AE17" sketch:type="MSShapeGroup" mask="url(#mask-12)"></path>
                <path d="M49.849,5.251 C49.523,4.79 49.198,4.328 48.873,3.866 C48.613,3.837 48.353,3.809 48.092,3.781 C47.615,5.877 46.785,7.964 46.725,10.072 C46.543,16.403 46.639,22.743 46.68,29.079 C46.689,30.421 46.924,31.761 47.055,33.101 C46.596,32.517 46.136,31.932 45.676,31.347 C45.396,25.185 45.091,19.025 44.844,12.862 C44.682,8.811 45.74,5.012 47.302,1.306 C47.592,0.619 47.471,-0.316 47.323,-1.096 C47.03,-2.642 46.586,-4.158 46.205,-5.687 C48.288,-3.171 48.825,-0.323 47.961,2.811 C49.33,3.106 50.915,3.191 49.849,5.251" id="Fill-74" fill="#88AE17" sketch:type="MSShapeGroup" mask="url(#mask-12)"></path>
                <path d="M26.202,-2.492 C25.556,1.345 24.876,5.176 24.272,9.019 C23.369,14.765 22.519,20.52 21.647,26.271 C21.501,27.23 21.359,28.19 21.216,29.149 C21.053,28.922 20.89,28.695 20.728,28.469 C21.376,23.101 21.864,17.708 22.715,12.373 C23.706,6.16 24.883,-0.032 26.234,-6.176 C27.101,-10.121 28.431,-13.963 29.544,-17.854 C29.813,-18.79 30.046,-19.737 30.296,-20.679 C30.901,-20.68 31.506,-20.681 32.111,-20.682 C31.847,-19.903 31.572,-19.128 31.322,-18.344 C30.217,-14.88 29.12,-11.414 28.02,-7.948 C27.414,-6.129 26.808,-4.311 26.202,-2.492" id="Fill-75" fill="#8CB419" sketch:type="MSShapeGroup" mask="url(#mask-12)"></path>
                <path d="M12.562,-8.858 C12.557,-8.556 12.553,-8.254 12.549,-7.951 C12.398,-7.499 12.246,-7.046 12.095,-6.593 C11.842,-6.455 11.415,-6.363 11.363,-6.171 C10.222,-1.918 9.122,2.345 8.014,6.606 C8.009,7.21 8.003,7.813 7.998,8.417 C7.847,8.72 7.696,9.023 7.545,9.327 C6.866,11.314 6.187,13.303 5.507,15.29 C5.393,15.271 5.278,15.247 5.166,15.219 C5.81,12.197 6.454,9.174 7.097,6.15 C8.029,2.804 9.027,-0.526 9.87,-3.895 C10.427,-6.126 10.761,-8.413 11.195,-10.675 C11.503,-11.32 11.87,-11.945 12.11,-12.614 C13.184,-15.604 14.223,-18.605 15.274,-21.603 C15.586,-21.446 15.897,-21.289 16.208,-21.131 C16.2,-20.68 16.192,-20.228 16.184,-19.776 C15.886,-19.017 15.588,-18.257 15.29,-17.499 C14.99,-16.74 14.689,-15.982 14.388,-15.224 C13.779,-13.102 13.17,-10.98 12.562,-8.858" id="Fill-76" fill="#8CB419" sketch:type="MSShapeGroup" mask="url(#mask-12)"></path>
                <path d="M54.842,17.063 C54.842,17.213 54.843,17.363 54.844,17.513 C54.394,18.323 53.52,19.159 53.566,19.94 C53.796,23.875 54.302,27.793 54.637,31.723 C54.79,33.508 54.771,35.308 54.829,37.101 C54.502,36.866 54.174,36.63 53.847,36.396 C53.5,33.745 53.094,31.101 52.82,28.442 C52.523,25.553 52.109,22.642 52.215,19.757 C52.271,18.233 53.326,16.746 53.93,15.242 C54.084,15.241 54.238,15.24 54.393,15.239 C54.544,15.242 54.694,15.252 54.844,15.27 C54.841,15.407 54.839,15.545 54.838,15.682 C54.84,16.142 54.841,16.602 54.842,17.063" id="Fill-77" fill="#8BB21C" sketch:type="MSShapeGroup" mask="url(#mask-12)"></path>
                <path d="M70.735,23.429 C69.179,21.773 67.508,20.208 66.089,18.441 C63.343,15.019 60.354,11.946 56.209,10.235 C56.209,9.78 56.209,9.326 56.208,8.871 C60.846,10.147 64.064,13.28 66.855,16.984 C68.148,18.7 69.482,20.386 70.799,22.084 C70.777,22.533 70.757,22.981 70.735,23.429" id="Fill-78" fill="#8AB11B" sketch:type="MSShapeGroup" mask="url(#mask-12)"></path>
                <path d="M5.507,15.29 C6.187,13.303 6.866,11.314 7.545,9.327 C7.594,10.289 7.739,11.258 7.664,12.21 C7.585,13.212 7.295,14.196 7.098,15.189 C6.567,15.222 6.038,15.256 5.507,15.29" id="Fill-79" fill="#81AC01" sketch:type="MSShapeGroup" mask="url(#mask-12)"></path>
                <path d="M72.191,14.994 C72.018,14.322 71.843,13.65 71.668,12.978 C72.075,13 72.483,13.022 72.891,13.043 C72.658,13.693 72.425,14.344 72.191,14.994" id="Fill-80" fill="#81AC01" sketch:type="MSShapeGroup" mask="url(#mask-12)"></path>
                <path d="M72.891,13.043 C72.483,13.022 72.075,13 71.668,12.978 C71.516,12.52 71.364,12.062 71.212,11.603 C71.761,12.075 72.31,12.546 72.858,13.019 C72.858,13.02 72.891,13.043 72.891,13.043" id="Fill-81" fill="#8BB21C" sketch:type="MSShapeGroup" mask="url(#mask-12)"></path>
                <path d="M11.195,-10.675 C10.761,-8.413 10.427,-6.126 9.87,-3.895 C9.027,-0.526 8.029,2.804 7.097,6.15 C6.339,3.842 4.939,1.528 4.956,-0.774 C4.995,-5.705 5.67,-10.642 6.281,-15.552 C6.563,-17.819 7.816,-19.666 10.089,-20.51 C10.585,-20.693 11.424,-20.668 11.754,-20.361 C12.032,-20.102 11.894,-19.276 11.778,-18.736 C11.314,-16.55 10.72,-14.389 10.336,-12.19 C10.26,-11.749 10.891,-11.184 11.195,-10.675" id="Fill-82" fill="#87B600" sketch:type="MSShapeGroup" mask="url(#mask-12)"></path>
                <path d="M7.998,8.417 C8.003,7.813 8.009,7.21 8.014,6.606 C10.212,6.424 11.935,4.529 12.579,2.059 C13.355,-0.914 12.876,-3.745 12.095,-6.593 C12.246,-7.046 12.398,-7.499 12.549,-7.951 C13.287,-5.741 14.61,-3.528 14.601,-1.321 C14.592,1.002 13.479,3.392 12.529,5.617 C11.745,7.455 10.059,8.37 7.998,8.417" id="Fill-83" fill="#81AC01" sketch:type="MSShapeGroup" mask="url(#mask-12)"></path>
                <path d="M54.844,-21.593 C55.342,-20.714 55.717,-19.731 56.359,-18.975 C60.164,-14.501 64.064,-10.109 67.849,-5.62 C68.712,-4.597 69.398,-3.359 69.886,-2.111 C70.169,-1.385 70.168,-0.27 69.78,0.347 C69.488,0.811 68.359,0.971 67.636,0.906 C63.702,0.55 62.852,-2.564 62.165,-5.623 C61.405,-9.003 59.832,-10.134 56.372,-9.432 C53.978,-8.947 53.057,-9.722 53.024,-12.246 C53.023,-12.397 53,-12.553 53.028,-12.699 C53.934,-17.319 51.614,-19.936 47.609,-21.594 C46.037,-22.244 44.55,-23.101 43.024,-23.863 C42.961,-23.999 42.888,-24.132 42.835,-24.272 C41.34,-28.224 41.34,-28.224 45.295,-27.96 C48.478,-25.838 51.661,-23.715 54.844,-21.593" id="Fill-84" fill="#86B500" sketch:type="MSShapeGroup" mask="url(#mask-12)"></path>
                <path d="M49.849,5.251 C50.915,3.191 49.33,3.106 47.961,2.811 C48.825,-0.323 48.288,-3.171 46.205,-5.687 C46.054,-6.586 45.904,-7.485 45.753,-8.384 C45.449,-9.15 45.145,-9.916 44.84,-10.682 L44.844,-10.677 L44.844,-11.15 C44.845,-11.289 44.845,-11.429 44.845,-11.568 C44.844,-11.884 44.843,-12.2 44.842,-12.516 C44.84,-12.81 44.839,-13.103 44.838,-13.397 C44.4,-13.635 43.955,-13.86 43.527,-14.116 C43.196,-14.315 42.887,-14.552 42.568,-14.772 L42.565,-14.767 C43.107,-15.723 43.649,-16.679 44.185,-17.625 C44.295,-17.523 44.566,-17.273 44.837,-17.023 C44.837,-16.73 44.838,-16.439 44.838,-16.146 C45.142,-15.837 45.445,-15.529 45.749,-15.22 L45.745,-15.225 L45.745,-14.754 C45.745,-14.612 45.745,-14.47 45.746,-14.329 C46.049,-13.862 46.354,-13.395 46.657,-12.928 C46.656,-12.64 46.654,-12.352 46.653,-12.064 C46.097,-9.683 47.606,-8.314 48.995,-7.291 C48.668,-6.333 48.058,-5.494 48.258,-4.961 C48.933,-3.169 49.897,-1.485 50.751,0.24 L50.747,0.234 C50.9,0.698 51.053,1.161 51.206,1.624 L51.206,2.5 C51.661,3.267 52.115,4.034 52.57,4.801 C52.568,4.941 52.566,5.082 52.566,5.223 C53.022,5.987 53.478,6.751 53.933,7.516 L53.929,7.512 C54.234,7.816 54.539,8.12 54.844,8.424 L54.84,8.42 C53.78,8.871 52.72,9.322 51.659,9.773 L51.659,7.975 C51.2,7.364 50.741,6.753 50.281,6.142 C50.137,5.845 49.993,5.548 49.849,5.251" id="Fill-85" fill="#79A101" sketch:type="MSShapeGroup" mask="url(#mask-12)"></path>
                <path d="M71.214,11.605 C70.397,10.996 69.469,10.491 68.779,9.761 C65.148,5.919 61.747,1.842 57.912,-1.778 C56.081,-3.507 53.466,-4.405 51.207,-5.68 C51.207,-6.282 51.208,-6.884 51.208,-7.486 C58.83,-4.143 64.411,1.64 69.503,7.963 C70.32,8.979 70.656,10.381 71.214,11.605" id="Fill-86" fill="#8BB21C" sketch:type="MSShapeGroup" mask="url(#mask-12)"></path>
                <path d="M51.208,-7.486 C51.208,-6.884 51.207,-6.282 51.207,-5.68 C50.681,-5.716 50.156,-5.752 49.252,-5.814 C49.769,-3.724 50.26,-1.742 50.751,0.24 C49.897,-1.485 48.933,-3.169 48.258,-4.961 C48.058,-5.494 48.668,-6.333 48.995,-7.291 C47.606,-8.314 46.097,-9.683 46.653,-12.064 C47.798,-10.167 48.468,-7.796 51.208,-7.486" id="Fill-87" fill="#88AE17" sketch:type="MSShapeGroup" mask="url(#mask-12)"></path>
                <path d="M73.942,-1.129 C74.17,-0.787 74.397,-0.445 74.624,-0.104 C74.501,-0.04 74.377,0.023 74.254,0.086 C74.149,-0.318 74.045,-0.723 73.94,-1.127 L73.942,-1.129" id="Fill-88" fill="#8BB21C" sketch:type="MSShapeGroup" mask="url(#mask-12)"></path>
                <path d="M42.115,-20.666 C42.115,-20.524 42.113,-20.383 42.111,-20.242 C42.262,-18.417 42.414,-16.592 42.565,-14.767 L42.568,-14.772 C42.112,-14.166 41.655,-13.559 41.199,-12.953 C39.396,-8.189 36.968,-3.555 35.952,1.37 C34.776,7.073 34.842,13.032 34.369,18.88 C33.754,19.455 33.075,19.976 32.542,20.618 C31.826,21.481 31.334,22.551 30.543,23.326 C29.546,24.302 28.744,23.918 28.505,22.571 C28.401,21.982 28.492,21.362 28.467,20.757 C28.167,13.447 27.885,6.137 27.502,-1.168 C27.478,-1.631 26.654,-2.052 26.202,-2.492 C26.808,-4.311 27.414,-6.129 28.02,-7.948 C28.321,-7.209 28.864,-6.478 28.887,-5.731 C29.101,1.511 29.204,8.756 29.397,16 C29.443,17.72 29.708,19.435 29.872,21.153 C30.184,21.172 30.496,21.191 30.808,21.211 C31.112,20.577 31.562,19.972 31.692,19.304 C32.054,17.469 32.377,15.616 32.542,13.755 C32.928,9.417 32.847,5 33.652,0.747 C34.286,-2.605 35.85,-5.807 37.2,-8.991 C38.99,-13.214 40.289,-17.485 39.846,-22.148 C39.595,-24.78 38.373,-25.514 36.027,-24.414 C35.748,-24.282 35.238,-24.642 34.835,-24.774 C35.596,-26.291 36.355,-27.808 37.116,-29.325 C37.417,-29.777 37.717,-30.23 38.017,-30.683 C38.92,-28.47 39.785,-26.239 40.749,-24.053 C41.07,-23.323 41.648,-22.705 42.108,-22.036 C42.109,-21.742 42.111,-21.448 42.113,-21.155 C42.114,-20.992 42.114,-20.829 42.115,-20.666" id="Fill-89" fill="#82AE00" sketch:type="MSShapeGroup" mask="url(#mask-12)"></path>
                <path d="M34.369,18.88 C34.842,13.032 34.776,7.073 35.952,1.37 C36.968,-3.555 39.396,-8.189 41.199,-12.953 C41.655,-12.8 42.111,-12.648 42.568,-12.496 C38.158,-6.76 37.441,0.143 36.718,6.945 C36.098,12.771 36.076,18.66 35.724,24.516 C35.614,26.337 35.287,28.146 35.06,29.959 C34.83,29.956 34.599,29.953 34.369,29.949 L34.369,18.88" id="Fill-90" fill="#8BB21C" sketch:type="MSShapeGroup" mask="url(#mask-12)"></path>
                <path d="M51.659,9.773 C52.72,9.322 53.78,8.871 54.84,8.42 C55.296,8.57 55.752,8.721 56.208,8.871 C56.209,9.326 56.209,9.78 56.209,10.235 C55.562,10.271 54.915,10.308 54.191,10.348 C54.901,12.236 55.554,13.968 56.206,15.701 C55.75,15.694 55.294,15.689 54.838,15.682 C54.839,15.545 54.841,15.407 54.844,15.27 C54.817,14.927 54.79,14.585 54.762,14.243 C54.672,14.242 54.582,14.241 54.491,14.239 C54.458,14.573 54.426,14.906 54.393,15.239 C54.238,15.24 54.084,15.241 53.93,15.242 L51.659,9.773" id="Fill-91" fill="#88AE17" sketch:type="MSShapeGroup" mask="url(#mask-12)"></path>
                <path d="M52.57,4.801 C52.115,4.034 51.661,3.267 51.206,2.5 C51.661,3.267 52.115,4.034 52.57,4.801" id="Fill-92" fill="#88AE17" sketch:type="MSShapeGroup" mask="url(#mask-12)"></path>
                <path d="M53.933,7.516 C53.478,6.751 53.022,5.987 52.566,5.223 C53.022,5.987 53.478,6.751 53.933,7.516" id="Fill-93" fill="#88AE17" sketch:type="MSShapeGroup" mask="url(#mask-12)"></path>
                <path d="M54.844,8.424 C54.539,8.12 54.234,7.816 53.929,7.512 C54.234,7.816 54.539,8.12 54.844,8.424" id="Fill-94" fill="#88AE17" sketch:type="MSShapeGroup" mask="url(#mask-12)"></path>
                <path d="M51.206,1.624 C51.053,1.161 50.9,0.698 50.747,0.234 C50.9,0.698 51.053,1.161 51.206,1.624" id="Fill-95" fill="#88AE17" sketch:type="MSShapeGroup" mask="url(#mask-12)"></path>
                <path d="M50.281,6.142 C50.741,6.753 51.2,7.364 51.659,7.975 C51.2,7.364 50.741,6.753 50.281,6.142" id="Fill-96" fill="#88AE17" sketch:type="MSShapeGroup" mask="url(#mask-12)"></path>
                <path d="M54.838,15.682 C55.294,15.689 55.75,15.694 56.206,15.701 L56.204,15.696 C56.356,15.853 56.509,16.01 56.662,16.167 C56.659,16.307 56.657,16.446 56.657,16.586 C56.811,17.049 56.964,17.511 57.118,17.973 L57.114,17.969 C57.873,19.342 58.631,20.715 59.39,22.087 C59.686,22.232 59.983,22.376 60.28,22.521 L60.28,27.549 C58.899,24.478 57.814,21.927 56.601,19.438 C56.176,18.567 55.438,17.85 54.842,17.063 C54.841,16.602 54.84,16.142 54.838,15.682" id="Fill-97" fill="#79A101" sketch:type="MSShapeGroup" mask="url(#mask-12)"></path>
                <path d="M59.39,22.087 C58.631,20.715 57.873,19.342 57.114,17.969 C57.873,19.342 58.631,20.715 59.39,22.087" id="Fill-98" fill="#88AE17" sketch:type="MSShapeGroup" mask="url(#mask-12)"></path>
                <path d="M57.118,17.973 C56.964,17.511 56.811,17.049 56.657,16.586 C56.811,17.048 56.964,17.511 57.118,17.973" id="Fill-99" fill="#88AE17" sketch:type="MSShapeGroup" mask="url(#mask-12)"></path>
                <path d="M56.662,16.167 C56.509,16.01 56.356,15.853 56.204,15.696 C56.356,15.853 56.509,16.01 56.662,16.167" id="Fill-100" fill="#88AE17" sketch:type="MSShapeGroup" mask="url(#mask-12)"></path>
                <path d="M34.835,-24.774 C35.238,-24.642 35.748,-24.282 36.027,-24.414 C38.373,-25.514 39.595,-24.78 39.846,-22.148 C40.289,-17.485 38.99,-13.214 37.2,-8.991 C35.85,-5.807 34.286,-2.605 33.652,0.747 C32.847,5 32.928,9.417 32.542,13.755 C32.377,15.616 32.054,17.469 31.692,19.304 C31.562,19.972 31.112,20.577 30.808,21.211 C30.496,21.191 30.184,21.172 29.872,21.153 C29.708,19.435 29.443,17.72 29.397,16 C29.204,8.756 29.101,1.511 28.887,-5.731 C28.864,-6.478 28.321,-7.209 28.02,-7.948 C29.12,-11.414 30.217,-14.88 31.322,-18.344 C31.572,-19.128 31.847,-19.903 32.111,-20.682 C33.019,-22.046 33.927,-23.41 34.835,-24.774" id="Fill-101" fill="#87B600" sketch:type="MSShapeGroup" mask="url(#mask-12)"></path>
                <path d="M12.095,-6.593 C12.876,-3.745 13.355,-0.914 12.579,2.059 C11.935,4.529 10.212,6.424 8.014,6.606 C9.122,2.345 10.222,-1.918 11.363,-6.171 C11.415,-6.363 11.842,-6.455 12.095,-6.593" id="Fill-102" fill="#87B601" sketch:type="MSShapeGroup" mask="url(#mask-12)"></path>
                <path d="M54.393,15.239 C54.426,14.906 54.458,14.573 54.491,14.239 C54.582,14.241 54.672,14.242 54.762,14.243 C54.79,14.585 54.817,14.927 54.844,15.27 C54.694,15.252 54.544,15.242 54.393,15.239" id="Fill-103" fill="#79A101" sketch:type="MSShapeGroup" mask="url(#mask-12)"></path>
            </g>
            <g id="Group-109">
                <mask id="mask-14" sketch:name="Clip 106" fill="white">
                    <use xlink:href="#path-13"></use>
                </mask>
                <g id="Clip-106"></g>
                <path d="M132.71,-2.827 C132.71,-2.827 129.021,5.946 118.331,11.91 C118.331,11.91 127.352,8.534 132.817,2.513 C132.817,2.513 159.262,30.193 187.464,4.202 C187.464,4.202 153.623,27.477 132.71,-2.827" id="Fill-105" fill="#D7DD47" sketch:type="MSShapeGroup" mask="url(#mask-14)"></path>
                <path d="M79.667,-3 C79.667,-3 84.834,17.026 84.334,34.026 C84.334,34.026 88.235,17 84.367,-3 L79.667,-3" id="Fill-107" fill="#D7DD47" sketch:type="MSShapeGroup" mask="url(#mask-14)"></path>
                <path d="M151.593,-2 C151.593,-2 147.605,25.281 167.014,28.152 C169.23,28.48 171.876,28.49 173.895,27.429 C177.21,25.686 177.793,21.412 174.724,19.27 C170.994,16.667 168.517,18.842 169.142,22.67 C168.902,21.205 171.637,19.499 172.98,20.206 C175.404,21.482 174.562,23.815 172.928,25.273 C169.924,27.956 166.036,25.83 163.211,24.053 C157.98,20.761 155.657,15.658 154.895,10.127 C154.337,6.077 154.329,1.827 154.518,-2 L151.593,-2" id="Fill-108" fill="#D7DD47" sketch:type="MSShapeGroup" mask="url(#mask-14)"></path>
            </g>
        </g>
    </g>
</svg>